<svg width="1013" height="108" viewBox="0 0 1013 108" fill="none" xmlns="http://www.w3.org/2000/svg">
<g clip-path="url(#clip0_50_5)">
<path d="M182.92 35.432L198.536 75.624C199.133 77.2027 199.816 78.2693 200.584 78.824C201.394 79.3787 202.141 79.6773 202.824 79.72V81C201.8 80.9147 200.584 80.872 199.176 80.872C197.81 80.8293 196.424 80.808 195.016 80.808C193.224 80.808 191.56 80.8293 190.024 80.872C188.488 80.872 187.25 80.9147 186.312 81V79.72C188.488 79.6347 189.853 79.272 190.408 78.632C191.005 77.9493 190.877 76.52 190.024 74.344L178.504 43.24L179.528 42.088L168.904 69.864C168.136 71.784 167.666 73.384 167.496 74.664C167.368 75.944 167.474 76.9467 167.816 77.672C168.2 78.3973 168.84 78.9093 169.736 79.208C170.632 79.5067 171.741 79.6773 173.064 79.72V81C171.784 80.9147 170.482 80.872 169.16 80.872C167.88 80.8293 166.664 80.808 165.512 80.808C164.488 80.808 163.57 80.8293 162.76 80.872C161.992 80.872 161.288 80.9147 160.648 81V79.72C161.544 79.5067 162.44 78.9733 163.336 78.12C164.232 77.2667 165.085 75.816 165.896 73.768L180.744 35.432C181.085 35.432 181.448 35.432 181.832 35.432C182.216 35.432 182.578 35.432 182.92 35.432ZM189.64 62.568V63.848H170.568L171.208 62.568H189.64ZM250.892 35.688V36.968C249.441 37.0533 248.353 37.3093 247.628 37.736C246.903 38.1627 246.412 38.8667 246.156 39.848C245.943 40.7867 245.836 42.1307 245.836 43.88V81.256C245.495 81.256 245.153 81.256 244.812 81.256C244.471 81.256 244.108 81.256 243.724 81.256L216.588 41.832V72.552C216.588 74.344 216.716 75.752 216.972 76.776C217.228 77.7573 217.783 78.4613 218.636 78.888C219.489 79.3147 220.791 79.592 222.54 79.72V81C221.729 80.9147 220.684 80.872 219.404 80.872C218.167 80.8293 216.993 80.808 215.884 80.808C214.817 80.808 213.751 80.8293 212.684 80.872C211.617 80.872 210.743 80.9147 210.06 81V79.72C211.468 79.592 212.535 79.336 213.26 78.952C213.985 78.5253 214.476 77.8213 214.732 76.84C214.988 75.8587 215.116 74.5147 215.116 72.808V42.472C215.116 40.8933 214.988 39.7413 214.732 39.016C214.476 38.248 213.985 37.736 213.26 37.48C212.535 37.1813 211.468 37.0107 210.06 36.968V35.688C210.743 35.7307 211.617 35.7733 212.684 35.816C213.751 35.8587 214.817 35.88 215.884 35.88C216.823 35.88 217.74 35.8587 218.636 35.816C219.532 35.7733 220.321 35.7307 221.004 35.688L244.364 69.096V44.136C244.364 42.3013 244.215 40.8933 243.916 39.912C243.66 38.9307 243.105 38.2267 242.252 37.8C241.399 37.3307 240.119 37.0533 238.412 36.968V35.688C239.18 35.7307 240.204 35.7733 241.484 35.816C242.764 35.8587 243.959 35.88 245.068 35.88C246.135 35.88 247.201 35.8587 248.268 35.816C249.335 35.7733 250.209 35.7307 250.892 35.688ZM280.532 35.432L296.148 75.624C296.745 77.2027 297.428 78.2693 298.196 78.824C299.007 79.3787 299.753 79.6773 300.436 79.72V81C299.412 80.9147 298.196 80.872 296.788 80.872C295.423 80.8293 294.036 80.808 292.628 80.808C290.836 80.808 289.172 80.8293 287.636 80.872C286.1 80.872 284.863 80.9147 283.924 81V79.72C286.1 79.6347 287.465 79.272 288.02 78.632C288.617 77.9493 288.489 76.52 287.636 74.344L276.116 43.24L277.14 42.088L266.516 69.864C265.748 71.784 265.279 73.384 265.108 74.664C264.98 75.944 265.087 76.9467 265.428 77.672C265.812 78.3973 266.452 78.9093 267.348 79.208C268.244 79.5067 269.353 79.6773 270.676 79.72V81C269.396 80.9147 268.095 80.872 266.772 80.872C265.492 80.8293 264.276 80.808 263.124 80.808C262.1 80.808 261.183 80.8293 260.372 80.872C259.604 80.872 258.9 80.9147 258.26 81V79.72C259.156 79.5067 260.052 78.9733 260.948 78.12C261.844 77.2667 262.697 75.816 263.508 73.768L278.356 35.432C278.697 35.432 279.06 35.432 279.444 35.432C279.828 35.432 280.191 35.432 280.532 35.432ZM287.252 62.568V63.848H268.18L268.82 62.568H287.252ZM323.322 34.92C325.584 34.92 327.312 35.176 328.506 35.688C329.701 36.2 330.746 36.7547 331.642 37.352C332.154 37.6507 332.56 37.8853 332.858 38.056C333.2 38.184 333.52 38.248 333.818 38.248C334.245 38.248 334.544 38.0133 334.714 37.544C334.928 37.0747 335.098 36.3707 335.226 35.432H336.698C336.656 36.2 336.592 37.1173 336.506 38.184C336.464 39.208 336.421 40.5733 336.378 42.28C336.378 43.9867 336.378 46.2267 336.378 49H334.906C334.778 46.9093 334.309 44.8827 333.498 42.92C332.73 40.9573 331.578 39.3573 330.042 38.12C328.549 36.8827 326.629 36.264 324.282 36.264C322.106 36.264 320.293 36.9253 318.842 38.248C317.434 39.528 316.73 41.2347 316.73 43.368C316.73 45.2453 317.2 46.824 318.138 48.104C319.077 49.3413 320.357 50.5147 321.978 51.624C323.642 52.6907 325.52 53.8853 327.61 55.208C329.744 56.5733 331.664 57.9387 333.37 59.304C335.077 60.6267 336.421 62.0987 337.402 63.72C338.384 65.3413 338.874 67.304 338.874 69.608C338.874 72.3813 338.213 74.6853 336.89 76.52C335.61 78.312 333.882 79.656 331.706 80.552C329.53 81.448 327.141 81.896 324.538 81.896C322.149 81.896 320.25 81.64 318.842 81.128C317.434 80.616 316.24 80.0827 315.258 79.528C314.32 78.9307 313.594 78.632 313.082 78.632C312.656 78.632 312.336 78.8667 312.122 79.336C311.952 79.8053 311.802 80.5093 311.674 81.448H310.202C310.288 80.5093 310.33 79.4213 310.33 78.184C310.373 76.904 310.394 75.24 310.394 73.192C310.437 71.144 310.458 68.5627 310.458 65.448H311.93C312.101 68.0933 312.57 70.568 313.338 72.872C314.149 75.176 315.365 77.032 316.986 78.44C318.65 79.8053 320.848 80.488 323.578 80.488C325.029 80.488 326.373 80.2107 327.61 79.656C328.848 79.1013 329.85 78.2267 330.618 77.032C331.386 75.8373 331.77 74.3013 331.77 72.424C331.77 70.6747 331.344 69.1387 330.49 67.816C329.68 66.4933 328.528 65.2773 327.034 64.168C325.584 63.016 323.877 61.8427 321.914 60.648C319.909 59.368 318.032 58.088 316.282 56.808C314.533 55.528 313.125 54.0347 312.058 52.328C311.034 50.6213 310.522 48.5947 310.522 46.248C310.522 43.6453 311.12 41.512 312.314 39.848C313.552 38.184 315.13 36.9467 317.05 36.136C319.013 35.3253 321.104 34.92 323.322 34.92ZM387.239 35.688C387.068 37.48 386.94 39.2293 386.855 40.936C386.812 42.6 386.791 43.88 386.791 44.776C386.791 45.7573 386.812 46.696 386.855 47.592C386.897 48.488 386.94 49.256 386.983 49.896H385.511C385.084 46.696 384.508 44.1787 383.783 42.344C383.1 40.5093 382.097 39.1867 380.775 38.376C379.452 37.5653 377.553 37.16 375.079 37.16H372.327V73.64C372.327 75.3467 372.476 76.6267 372.775 77.48C373.116 78.3333 373.756 78.9093 374.695 79.208C375.676 79.464 377.084 79.6347 378.919 79.72V81C377.724 80.9147 376.188 80.872 374.311 80.872C372.433 80.8293 370.513 80.808 368.551 80.808C366.503 80.808 364.561 80.8293 362.727 80.872C360.935 80.872 359.484 80.9147 358.375 81V79.72C360.209 79.6347 361.596 79.464 362.535 79.208C363.473 78.9093 364.113 78.3333 364.455 77.48C364.796 76.6267 364.967 75.3467 364.967 73.64V37.16H362.151C359.761 37.16 357.884 37.5653 356.519 38.376C355.153 39.1867 354.129 40.5093 353.447 42.344C352.764 44.1787 352.209 46.696 351.783 49.896H350.311C350.396 49.256 350.439 48.488 350.439 47.592C350.481 46.696 350.503 45.7573 350.503 44.776C350.503 43.88 350.46 42.6 350.375 40.936C350.332 39.2293 350.225 37.48 350.055 35.688C351.889 35.7307 353.895 35.7733 356.071 35.816C358.247 35.8587 360.444 35.88 362.663 35.88C364.881 35.88 366.887 35.88 368.679 35.88C370.471 35.88 372.455 35.88 374.631 35.88C376.807 35.88 379.004 35.8587 381.223 35.816C383.441 35.7733 385.447 35.7307 387.239 35.688ZM413.795 35.432L429.411 75.624C430.008 77.2027 430.691 78.2693 431.459 78.824C432.269 79.3787 433.016 79.6773 433.699 79.72V81C432.675 80.9147 431.459 80.872 430.051 80.872C428.685 80.8293 427.299 80.808 425.891 80.808C424.099 80.808 422.435 80.8293 420.899 80.872C419.363 80.872 418.125 80.9147 417.187 81V79.72C419.363 79.6347 420.728 79.272 421.283 78.632C421.88 77.9493 421.752 76.52 420.899 74.344L409.379 43.24L410.403 42.088L399.779 69.864C399.011 71.784 398.541 73.384 398.371 74.664C398.243 75.944 398.349 76.9467 398.691 77.672C399.075 78.3973 399.715 78.9093 400.611 79.208C401.507 79.5067 402.616 79.6773 403.939 79.72V81C402.659 80.9147 401.357 80.872 400.035 80.872C398.755 80.8293 397.539 80.808 396.387 80.808C395.363 80.808 394.445 80.8293 393.635 80.872C392.867 80.872 392.163 80.9147 391.523 81V79.72C392.419 79.5067 393.315 78.9733 394.211 78.12C395.107 77.2667 395.96 75.816 396.771 73.768L411.619 35.432C411.96 35.432 412.323 35.432 412.707 35.432C413.091 35.432 413.453 35.432 413.795 35.432ZM420.515 62.568V63.848H401.443L402.083 62.568H420.515ZM456.585 34.92C458.846 34.92 460.574 35.176 461.769 35.688C462.964 36.2 464.009 36.7547 464.905 37.352C465.417 37.6507 465.822 37.8853 466.121 38.056C466.462 38.184 466.782 38.248 467.081 38.248C467.508 38.248 467.806 38.0133 467.977 37.544C468.19 37.0747 468.361 36.3707 468.489 35.432H469.961C469.918 36.2 469.854 37.1173 469.769 38.184C469.726 39.208 469.684 40.5733 469.641 42.28C469.641 43.9867 469.641 46.2267 469.641 49H468.169C468.041 46.9093 467.572 44.8827 466.761 42.92C465.993 40.9573 464.841 39.3573 463.305 38.12C461.812 36.8827 459.892 36.264 457.545 36.264C455.369 36.264 453.556 36.9253 452.105 38.248C450.697 39.528 449.993 41.2347 449.993 43.368C449.993 45.2453 450.462 46.824 451.401 48.104C452.34 49.3413 453.62 50.5147 455.241 51.624C456.905 52.6907 458.782 53.8853 460.873 55.208C463.006 56.5733 464.926 57.9387 466.633 59.304C468.34 60.6267 469.684 62.0987 470.665 63.72C471.646 65.3413 472.137 67.304 472.137 69.608C472.137 72.3813 471.476 74.6853 470.153 76.52C468.873 78.312 467.145 79.656 464.969 80.552C462.793 81.448 460.404 81.896 457.801 81.896C455.412 81.896 453.513 81.64 452.105 81.128C450.697 80.616 449.502 80.0827 448.521 79.528C447.582 78.9307 446.857 78.632 446.345 78.632C445.918 78.632 445.598 78.8667 445.385 79.336C445.214 79.8053 445.065 80.5093 444.937 81.448H443.465C443.55 80.5093 443.593 79.4213 443.593 78.184C443.636 76.904 443.657 75.24 443.657 73.192C443.7 71.144 443.721 68.5627 443.721 65.448H445.193C445.364 68.0933 445.833 70.568 446.601 72.872C447.412 75.176 448.628 77.032 450.249 78.44C451.913 79.8053 454.11 80.488 456.841 80.488C458.292 80.488 459.636 80.2107 460.873 79.656C462.11 79.1013 463.113 78.2267 463.881 77.032C464.649 75.8373 465.033 74.3013 465.033 72.424C465.033 70.6747 464.606 69.1387 463.753 67.816C462.942 66.4933 461.79 65.2773 460.297 64.168C458.846 63.016 457.14 61.8427 455.177 60.648C453.172 59.368 451.294 58.088 449.545 56.808C447.796 55.528 446.388 54.0347 445.321 52.328C444.297 50.6213 443.785 48.5947 443.785 46.248C443.785 43.6453 444.382 41.512 445.577 39.848C446.814 38.184 448.393 36.9467 450.313 36.136C452.276 35.3253 454.366 34.92 456.585 34.92ZM501.493 35.688V36.968C500.085 37.0107 499.018 37.1813 498.293 37.48C497.568 37.736 497.077 38.248 496.821 39.016C496.565 39.7413 496.437 40.8933 496.437 42.472V74.216C496.437 75.752 496.565 76.904 496.821 77.672C497.077 78.44 497.568 78.952 498.293 79.208C499.018 79.464 500.085 79.6347 501.493 79.72V81C500.469 80.9147 499.168 80.872 497.589 80.872C496.053 80.8293 494.474 80.808 492.853 80.808C491.061 80.808 489.376 80.8293 487.797 80.872C486.261 80.872 485.002 80.9147 484.021 81V79.72C485.472 79.6347 486.56 79.464 487.285 79.208C488.01 78.952 488.48 78.44 488.693 77.672C488.949 76.904 489.077 75.752 489.077 74.216V42.472C489.077 40.8933 488.949 39.7413 488.693 39.016C488.48 38.248 487.989 37.736 487.221 37.48C486.496 37.1813 485.429 37.0107 484.021 36.968V35.688C485.002 35.7307 486.261 35.7733 487.797 35.816C489.376 35.8587 491.061 35.88 492.853 35.88C494.474 35.88 496.053 35.8587 497.589 35.816C499.168 35.7733 500.469 35.7307 501.493 35.688ZM531.995 35.432L547.611 75.624C548.208 77.2027 548.891 78.2693 549.659 78.824C550.469 79.3787 551.216 79.6773 551.899 79.72V81C550.875 80.9147 549.659 80.872 548.251 80.872C546.885 80.8293 545.499 80.808 544.091 80.808C542.299 80.808 540.635 80.8293 539.099 80.872C537.563 80.872 536.325 80.9147 535.387 81V79.72C537.563 79.6347 538.928 79.272 539.483 78.632C540.08 77.9493 539.952 76.52 539.099 74.344L527.579 43.24L528.603 42.088L517.979 69.864C517.211 71.784 516.741 73.384 516.571 74.664C516.443 75.944 516.549 76.9467 516.891 77.672C517.275 78.3973 517.915 78.9093 518.811 79.208C519.707 79.5067 520.816 79.6773 522.139 79.72V81C520.859 80.9147 519.557 80.872 518.235 80.872C516.955 80.8293 515.739 80.808 514.587 80.808C513.563 80.808 512.645 80.8293 511.835 80.872C511.067 80.872 510.363 80.9147 509.723 81V79.72C510.619 79.5067 511.515 78.9733 512.411 78.12C513.307 77.2667 514.16 75.816 514.971 73.768L529.819 35.432C530.16 35.432 530.523 35.432 530.907 35.432C531.291 35.432 531.653 35.432 531.995 35.432ZM538.715 62.568V63.848H519.643L520.283 62.568H538.715ZM604.371 35.688C605.352 35.7307 606.611 35.7733 608.147 35.816C609.726 35.8587 611.283 35.88 612.819 35.88C614.867 35.88 616.808 35.8587 618.643 35.816C620.52 35.7733 621.843 35.752 622.611 35.752C627.39 35.752 630.952 36.6907 633.299 38.568C635.688 40.4453 636.883 42.856 636.883 45.8C636.883 47.2933 636.52 48.7867 635.795 50.28C635.112 51.7307 633.982 53.0533 632.403 54.248C630.824 55.4 628.734 56.3173 626.131 57V57.128C629.715 57.512 632.531 58.28 634.579 59.432C636.627 60.584 638.078 61.9707 638.931 63.592C639.784 65.1707 640.211 66.8347 640.211 68.584C640.211 71.1013 639.571 73.2987 638.291 75.176C637.011 77.0107 635.155 78.44 632.723 79.464C630.334 80.488 627.454 81 624.083 81C623.144 81 621.715 80.9787 619.795 80.936C617.918 80.8507 615.635 80.808 612.947 80.808C611.326 80.808 609.726 80.8293 608.147 80.872C606.611 80.872 605.352 80.9147 604.371 81V79.72C605.822 79.6347 606.91 79.464 607.635 79.208C608.36 78.952 608.83 78.44 609.043 77.672C609.299 76.904 609.427 75.752 609.427 74.216V42.472C609.427 40.8933 609.299 39.7413 609.043 39.016C608.83 38.248 608.339 37.736 607.571 37.48C606.846 37.1813 605.779 37.0107 604.371 36.968V35.688ZM621.267 36.968C619.432 36.968 618.216 37.3307 617.619 38.056C617.064 38.7813 616.787 40.2533 616.787 42.472V74.216C616.787 75.7093 616.915 76.84 617.171 77.608C617.427 78.376 617.875 78.888 618.515 79.144C619.198 79.4 620.179 79.528 621.459 79.528C625.299 79.528 628.072 78.568 629.779 76.648C631.528 74.6853 632.403 71.912 632.403 68.328C632.403 65.0427 631.528 62.504 629.779 60.712C628.072 58.92 625.235 58.024 621.267 58.024H615.059C615.059 58.024 615.059 57.8533 615.059 57.512C615.059 57.128 615.059 56.936 615.059 56.936H620.563C622.91 56.936 624.723 56.4667 626.003 55.528C627.283 54.5467 628.158 53.2667 628.627 51.688C629.096 50.0667 629.331 48.3387 629.331 46.504C629.331 43.3467 628.712 40.9787 627.475 39.4C626.238 37.7787 624.168 36.968 621.267 36.968ZM683.975 35.688C683.804 37.3093 683.676 38.888 683.591 40.424C683.548 41.9173 683.527 43.0693 683.527 43.88C683.527 44.6907 683.548 45.4587 683.591 46.184C683.634 46.9093 683.676 47.5067 683.719 47.976H682.247C681.948 45.2453 681.479 43.0907 680.839 41.512C680.242 39.9333 679.324 38.824 678.087 38.184C676.892 37.5013 675.207 37.16 673.031 37.16H668.615C667.25 37.16 666.204 37.288 665.479 37.544C664.796 37.7573 664.327 38.2267 664.071 38.952C663.815 39.6347 663.687 40.7227 663.687 42.216V74.472C663.687 75.9227 663.815 77.0107 664.071 77.736C664.327 78.4613 664.796 78.952 665.479 79.208C666.204 79.4213 667.25 79.528 668.615 79.528H672.775C675.207 79.528 677.127 79.144 678.535 78.376C679.986 77.608 681.074 76.3493 681.799 74.6C682.567 72.8507 683.143 70.4613 683.527 67.432H684.999C684.871 68.6693 684.807 70.2907 684.807 72.296C684.807 73.1493 684.828 74.3867 684.871 76.008C684.956 77.6293 685.084 79.2933 685.255 81C683.079 80.9147 680.626 80.872 677.895 80.872C675.164 80.8293 672.732 80.808 670.599 80.808C669.618 80.808 668.359 80.808 666.823 80.808C665.287 80.808 663.623 80.8293 661.831 80.872C660.082 80.872 658.29 80.8933 656.455 80.936C654.663 80.936 652.935 80.9573 651.271 81V79.72C652.722 79.6347 653.81 79.464 654.535 79.208C655.26 78.952 655.73 78.44 655.943 77.672C656.199 76.904 656.327 75.752 656.327 74.216V42.472C656.327 40.8933 656.199 39.7413 655.943 39.016C655.73 38.248 655.239 37.736 654.471 37.48C653.746 37.1813 652.679 37.0107 651.271 36.968V35.688C652.935 35.7307 654.663 35.7733 656.455 35.816C658.29 35.816 660.082 35.8373 661.831 35.88C663.623 35.88 665.287 35.88 666.823 35.88C668.359 35.88 669.618 35.88 670.599 35.88C672.562 35.88 674.78 35.88 677.255 35.88C679.772 35.8373 682.012 35.7733 683.975 35.688ZM673.351 57.576C673.351 57.576 673.351 57.7893 673.351 58.216C673.351 58.6427 673.351 58.856 673.351 58.856H661.767C661.767 58.856 661.767 58.6427 661.767 58.216C661.767 57.7893 661.767 57.576 661.767 57.576H673.351ZM675.207 49.128C675.036 51.56 674.951 53.416 674.951 54.696C674.994 55.976 675.015 57.1493 675.015 58.216C675.015 59.2827 675.036 60.456 675.079 61.736C675.122 63.016 675.228 64.872 675.399 67.304H673.927C673.714 65.896 673.436 64.552 673.095 63.272C672.754 61.9493 672.135 60.8827 671.239 60.072C670.386 59.2613 669.042 58.856 667.207 58.856V57.576C668.572 57.576 669.639 57.2987 670.407 56.744C671.218 56.1893 671.836 55.464 672.263 54.568C672.69 53.672 672.988 52.7547 673.159 51.816C673.372 50.8347 673.564 49.9387 673.735 49.128H675.207ZM733.651 35.688C733.48 37.48 733.352 39.2293 733.267 40.936C733.224 42.6 733.203 43.88 733.203 44.776C733.203 45.7573 733.224 46.696 733.267 47.592C733.31 48.488 733.352 49.256 733.395 49.896H731.923C731.496 46.696 730.92 44.1787 730.195 42.344C729.512 40.5093 728.51 39.1867 727.187 38.376C725.864 37.5653 723.966 37.16 721.491 37.16H718.739V73.64C718.739 75.3467 718.888 76.6267 719.187 77.48C719.528 78.3333 720.168 78.9093 721.107 79.208C722.088 79.464 723.496 79.6347 725.331 79.72V81C724.136 80.9147 722.6 80.872 720.723 80.872C718.846 80.8293 716.926 80.808 714.963 80.808C712.915 80.808 710.974 80.8293 709.139 80.872C707.347 80.872 705.896 80.9147 704.787 81V79.72C706.622 79.6347 708.008 79.464 708.947 79.208C709.886 78.9093 710.526 78.3333 710.867 77.48C711.208 76.6267 711.379 75.3467 711.379 73.64V37.16H708.563C706.174 37.16 704.296 37.5653 702.931 38.376C701.566 39.1867 700.542 40.5093 699.859 42.344C699.176 44.1787 698.622 46.696 698.195 49.896H696.723C696.808 49.256 696.851 48.488 696.851 47.592C696.894 46.696 696.915 45.7573 696.915 44.776C696.915 43.88 696.872 42.6 696.787 40.936C696.744 39.2293 696.638 37.48 696.467 35.688C698.302 35.7307 700.307 35.7733 702.483 35.816C704.659 35.8587 706.856 35.88 709.075 35.88C711.294 35.88 713.299 35.88 715.091 35.88C716.883 35.88 718.867 35.88 721.043 35.88C723.219 35.88 725.416 35.8587 727.635 35.816C729.854 35.7733 731.859 35.7307 733.651 35.688ZM782.785 35.688V36.968C781.42 37.1813 780.054 37.672 778.689 38.44C777.366 39.1653 776.022 40.3813 774.657 42.088L762.369 57.448L764.545 53.544L779.905 75.816C780.588 76.84 781.313 77.6507 782.081 78.248C782.892 78.8453 783.916 79.336 785.153 79.72V81C784.001 80.9147 782.614 80.872 780.993 80.872C779.372 80.8293 777.942 80.808 776.705 80.808C775.937 80.808 774.977 80.8293 773.825 80.872C772.716 80.872 771.308 80.9147 769.601 81V79.72C771.18 79.6347 772.14 79.3787 772.481 78.952C772.865 78.5253 772.716 77.8213 772.033 76.84L762.753 62.44C761.985 61.2453 761.302 60.3493 760.705 59.752C760.108 59.112 759.489 58.7067 758.849 58.536C758.209 58.3227 757.42 58.1947 756.481 58.152V56.808C758.273 56.7653 759.809 56.36 761.089 55.592C762.412 54.824 763.649 53.7787 764.801 52.456L770.113 45.736C771.606 43.9013 772.566 42.344 772.993 41.064C773.42 39.7413 773.313 38.7387 772.673 38.056C772.033 37.3733 770.838 37.0107 769.089 36.968V35.688C769.985 35.7307 770.86 35.7733 771.713 35.816C772.609 35.816 773.505 35.8373 774.401 35.88C775.34 35.88 776.257 35.88 777.153 35.88C778.305 35.88 779.35 35.8587 780.289 35.816C781.27 35.7733 782.102 35.7307 782.785 35.688ZM761.793 35.688V36.968C760.385 37.0107 759.318 37.1813 758.593 37.48C757.868 37.736 757.377 38.248 757.121 39.016C756.865 39.7413 756.737 40.8933 756.737 42.472V74.216C756.737 75.752 756.865 76.904 757.121 77.672C757.377 78.44 757.868 78.952 758.593 79.208C759.318 79.464 760.385 79.6347 761.793 79.72V81C760.769 80.9147 759.468 80.872 757.889 80.872C756.353 80.8293 754.774 80.808 753.153 80.808C751.361 80.808 749.676 80.8293 748.097 80.872C746.561 80.872 745.302 80.9147 744.321 81V79.72C745.772 79.6347 746.86 79.464 747.585 79.208C748.31 78.952 748.78 78.44 748.993 77.672C749.249 76.904 749.377 75.752 749.377 74.216V42.472C749.377 40.8933 749.249 39.7413 748.993 39.016C748.78 38.248 748.289 37.736 747.521 37.48C746.796 37.1813 745.729 37.0107 744.321 36.968V35.688C745.302 35.7307 746.561 35.7733 748.097 35.816C749.676 35.8587 751.361 35.88 753.153 35.88C754.774 35.88 756.353 35.8587 757.889 35.816C759.468 35.7733 760.769 35.7307 761.793 35.688ZM811.38 35.688V36.968C809.972 37.0107 808.906 37.1813 808.18 37.48C807.455 37.736 806.964 38.248 806.708 39.016C806.452 39.7413 806.324 40.8933 806.324 42.472V74.216C806.324 75.752 806.452 76.904 806.708 77.672C806.964 78.44 807.455 78.952 808.18 79.208C808.906 79.464 809.972 79.6347 811.38 79.72V81C810.356 80.9147 809.055 80.872 807.476 80.872C805.94 80.8293 804.362 80.808 802.74 80.808C800.948 80.808 799.263 80.8293 797.684 80.872C796.148 80.872 794.89 80.9147 793.908 81V79.72C795.359 79.6347 796.447 79.464 797.172 79.208C797.898 78.952 798.367 78.44 798.58 77.672C798.836 76.904 798.964 75.752 798.964 74.216V42.472C798.964 40.8933 798.836 39.7413 798.58 39.016C798.367 38.248 797.876 37.736 797.108 37.48C796.383 37.1813 795.316 37.0107 793.908 36.968V35.688C794.89 35.7307 796.148 35.7733 797.684 35.816C799.263 35.8587 800.948 35.88 802.74 35.88C804.362 35.88 805.94 35.8587 807.476 35.816C809.055 35.7733 810.356 35.7307 811.38 35.688ZM863.642 35.688V36.968C862.191 37.0533 861.103 37.3093 860.378 37.736C859.653 38.1627 859.162 38.8667 858.906 39.848C858.693 40.7867 858.586 42.1307 858.586 43.88V81.256C858.245 81.256 857.903 81.256 857.562 81.256C857.221 81.256 856.858 81.256 856.474 81.256L829.338 41.832V72.552C829.338 74.344 829.466 75.752 829.722 76.776C829.978 77.7573 830.533 78.4613 831.386 78.888C832.239 79.3147 833.541 79.592 835.29 79.72V81C834.479 80.9147 833.434 80.872 832.154 80.872C830.917 80.8293 829.743 80.808 828.634 80.808C827.567 80.808 826.501 80.8293 825.434 80.872C824.367 80.872 823.493 80.9147 822.81 81V79.72C824.218 79.592 825.285 79.336 826.01 78.952C826.735 78.5253 827.226 77.8213 827.482 76.84C827.738 75.8587 827.866 74.5147 827.866 72.808V42.472C827.866 40.8933 827.738 39.7413 827.482 39.016C827.226 38.248 826.735 37.736 826.01 37.48C825.285 37.1813 824.218 37.0107 822.81 36.968V35.688C823.493 35.7307 824.367 35.7733 825.434 35.816C826.501 35.8587 827.567 35.88 828.634 35.88C829.573 35.88 830.49 35.8587 831.386 35.816C832.282 35.7733 833.071 35.7307 833.754 35.688L857.114 69.096V44.136C857.114 42.3013 856.965 40.8933 856.666 39.912C856.41 38.9307 855.855 38.2267 855.002 37.8C854.149 37.3307 852.869 37.0533 851.162 36.968V35.688C851.93 35.7307 852.954 35.7733 854.234 35.816C855.514 35.8587 856.709 35.88 857.818 35.88C858.885 35.88 859.951 35.8587 861.018 35.816C862.085 35.7733 862.959 35.7307 863.642 35.688ZM893.282 35.432L908.898 75.624C909.495 77.2027 910.178 78.2693 910.946 78.824C911.757 79.3787 912.503 79.6773 913.186 79.72V81C912.162 80.9147 910.946 80.872 909.538 80.872C908.173 80.8293 906.786 80.808 905.378 80.808C903.586 80.808 901.922 80.8293 900.386 80.872C898.85 80.872 897.613 80.9147 896.674 81V79.72C898.85 79.6347 900.215 79.272 900.77 78.632C901.367 77.9493 901.239 76.52 900.386 74.344L888.866 43.24L889.89 42.088L879.266 69.864C878.498 71.784 878.029 73.384 877.858 74.664C877.73 75.944 877.837 76.9467 878.178 77.672C878.562 78.3973 879.202 78.9093 880.098 79.208C880.994 79.5067 882.103 79.6773 883.426 79.72V81C882.146 80.9147 880.845 80.872 879.522 80.872C878.242 80.8293 877.026 80.808 875.874 80.808C874.85 80.808 873.933 80.8293 873.122 80.872C872.354 80.872 871.65 80.9147 871.01 81V79.72C871.906 79.5067 872.802 78.9733 873.698 78.12C874.594 77.2667 875.447 75.816 876.258 73.768L891.106 35.432C891.447 35.432 891.81 35.432 892.194 35.432C892.578 35.432 892.941 35.432 893.282 35.432ZM900.002 62.568V63.848H880.93L881.57 62.568H900.002Z" fill="black"/>
</g>
<defs>
<clipPath id="clip0_50_5">
<rect width="1013" height="108" fill="white"/>
</clipPath>
</defs>
</svg>
