<svg width="1013" height="141" viewBox="0 0 1013 141" fill="none" xmlns="http://www.w3.org/2000/svg">
<path d="M129.199 71H119.279V70.872C122.351 67.672 123.503 64.792 125.359 59.864L138.799 23.64H141.487L155.183 60.568C157.231 66.136 158.767 68.568 161.007 70.872V71H148.143V70.872C149.231 69.016 149.167 64.984 147.439 60.248L145.135 53.976H130.159L129.071 56.92C126.255 64.472 127.855 68.76 129.199 70.872V71ZM131.119 51.416H144.175L137.647 33.752L131.119 51.416ZM206.36 71.192L177.304 31.768L177.56 58.264C177.56 64.024 178.392 66.392 181.976 70.872V71H170.84V70.872C174.04 66.392 174.744 64.024 174.744 58.264V33.176C174.488 29.016 173.336 27.096 169.752 24.28V24.152H180.632L206.808 58.904L206.616 36.888C206.552 31.128 205.784 28.76 202.712 24.28V24.152H213.208V24.28C210.136 28.76 209.304 31.128 209.304 36.888V71L206.36 71.192ZM231.436 71H221.516V70.872C224.588 67.672 225.74 64.792 227.596 59.864L241.036 23.64H243.724L257.42 60.568C259.468 66.136 261.004 68.568 263.244 70.872V71H250.38V70.872C251.468 69.016 251.404 64.984 249.676 60.248L247.372 53.976H232.396L231.308 56.92C228.492 64.472 230.092 68.76 231.436 70.872V71ZM233.356 51.416H246.412L239.884 33.752L233.356 51.416ZM300.285 25.048L301.501 35.992L300.349 36.376C296.317 28.248 292.029 25.752 287.485 25.752C283.133 25.752 280.573 28.056 280.573 31.96C280.573 37.72 286.077 40.28 291.837 43.096C298.109 46.168 304.701 49.56 304.701 58.328C304.701 67.928 297.021 71.96 287.933 71.96C283.645 71.96 278.973 71.064 274.749 69.464L273.469 56.984L274.621 56.536C279.165 65.496 284.093 69.4 290.109 69.4C295.997 69.4 298.557 65.688 298.557 61.4C298.557 55.32 293.565 52.696 288.189 49.944C281.917 46.744 275.069 43.608 275.069 35.416C275.069 26.584 282.173 23.192 289.853 23.192C293.629 23.192 297.277 23.96 300.285 25.048ZM341.875 70.872V71H329.395V70.872C331.443 66.904 331.955 64.664 331.955 59.416V26.52L324.979 26.776C322.355 26.904 317.939 34.072 314.803 38.424L313.651 37.976L316.083 24.152H355.187L357.619 37.976L356.467 38.424C353.139 34.072 349.107 26.904 346.291 26.776L339.315 26.52V59.416C339.315 64.728 339.763 66.904 341.875 70.872ZM371.699 71H361.779V70.872C364.851 67.672 366.003 64.792 367.859 59.864L381.299 23.64H383.987L397.683 60.568C399.731 66.136 401.267 68.568 403.507 70.872V71H390.643V70.872C391.731 69.016 391.667 64.984 389.939 60.248L387.635 53.976H372.659L371.571 56.92C368.755 64.472 370.355 68.76 371.699 70.872V71ZM373.619 51.416H386.675L380.147 33.752L373.619 51.416ZM440.547 25.048L441.763 35.992L440.611 36.376C436.579 28.248 432.291 25.752 427.747 25.752C423.395 25.752 420.835 28.056 420.835 31.96C420.835 37.72 426.339 40.28 432.099 43.096C438.371 46.168 444.963 49.56 444.963 58.328C444.963 67.928 437.283 71.96 428.195 71.96C423.907 71.96 419.235 71.064 415.011 69.464L413.731 56.984L414.883 56.536C419.427 65.496 424.355 69.4 430.371 69.4C436.259 69.4 438.819 65.688 438.819 61.4C438.819 55.32 433.827 52.696 428.451 49.944C422.179 46.744 415.331 43.608 415.331 35.416C415.331 26.584 422.435 23.192 430.115 23.192C433.891 23.192 437.539 23.96 440.547 25.048ZM457.771 71V70.872C459.883 66.904 460.331 64.728 460.331 59.416V35.736C460.331 30.424 459.883 28.248 457.771 24.28V24.152H470.251V24.28C468.139 28.248 467.691 30.424 467.691 35.736V59.416C467.691 64.728 468.139 66.904 470.251 70.872V71H457.771ZM491.399 71H481.479V70.872C484.551 67.672 485.703 64.792 487.559 59.864L500.999 23.64H503.687L517.383 60.568C519.431 66.136 520.967 68.568 523.207 70.872V71H510.343V70.872C511.431 69.016 511.367 64.984 509.639 60.248L507.335 53.976H492.359L491.271 56.92C488.455 64.472 490.055 68.76 491.399 70.872V71ZM493.319 51.416H506.375L499.847 33.752L493.319 51.416ZM613.39 57.944C613.39 65.24 608.078 71 594.766 71H577.934V70.872C579.982 66.904 580.494 64.664 580.494 59.416V35.736C580.494 30.424 579.982 28.248 577.934 24.28V24.152C587.278 24.152 589.518 23.896 594.702 23.896C608.526 23.832 610.958 29.976 610.958 34.84C610.958 39.832 608.334 44.12 602.254 46.168C610.51 47.448 613.39 52.632 613.39 57.944ZM587.854 45.336H595.278C601.486 45.272 603.598 39.96 603.598 35.224C603.598 29.592 600.014 26.456 593.614 26.456C591.118 26.456 589.326 26.712 587.854 27.096V45.336ZM593.87 68.44C601.55 68.44 605.326 64.344 605.326 58.264C605.326 52.248 602.318 47.896 595.854 47.896H587.854V67.672C589.39 68.056 591.438 68.44 593.87 68.44ZM625.898 71V70.872C627.562 66.968 628.394 64.472 628.394 60.184V34.968C628.394 30.616 627.562 28.184 625.898 24.28V24.152H655.466L657.962 35.544L656.81 36.056C653.61 32.856 649.898 26.968 647.274 26.84L635.818 26.392V46.104H641.45C644.202 46.104 646.954 41.816 648.618 39.384H649.834V55.128H648.618C646.954 52.824 644.202 48.664 641.322 48.664H635.818V68.76L647.85 68.312C652.842 68.12 656.874 62.04 660.33 57.176L661.482 57.688L658.666 71H625.898ZM698.663 70.872V71H686.183V70.872C688.231 66.904 688.743 64.664 688.743 59.416V26.52L681.767 26.776C679.143 26.904 674.727 34.072 671.591 38.424L670.439 37.976L672.871 24.152H711.975L714.407 37.976L713.255 38.424C709.927 34.072 705.895 26.904 703.079 26.776L696.103 26.52V59.416C696.103 64.728 696.551 66.904 698.663 70.872ZM765.867 71H754.923L737.515 47.896L748.331 33.944C752.299 28.888 753.387 26.264 751.915 24.28V24.152H763.307V24.28C757.739 27.096 754.859 29.656 751.659 33.816L743.787 43.928L758.187 63C760.683 66.328 762.667 68.632 765.867 70.872V71ZM726.571 71V70.872C728.619 66.904 729.131 64.664 729.131 59.416V35.736C729.131 30.424 728.619 28.248 726.571 24.28V24.152H739.051V24.28C736.939 28.248 736.491 30.424 736.491 35.736V59.416C736.491 64.728 736.939 66.904 739.051 70.872V71H726.571ZM777.096 71V70.872C779.208 66.904 779.656 64.728 779.656 59.416V35.736C779.656 30.424 779.208 28.248 777.096 24.28V24.152H789.576V24.28C787.464 28.248 787.016 30.424 787.016 35.736V59.416C787.016 64.728 787.464 66.904 789.576 70.872V71H777.096ZM837.86 71.192L808.804 31.768L809.06 58.264C809.06 64.024 809.892 66.392 813.476 70.872V71H802.34V70.872C805.54 66.392 806.244 64.024 806.244 58.264V33.176C805.988 29.016 804.836 27.096 801.252 24.28V24.152H812.132L838.308 58.904L838.116 36.888C838.052 31.128 837.284 28.76 834.212 24.28V24.152H844.708V24.28C841.636 28.76 840.804 31.128 840.804 36.888V71L837.86 71.192ZM862.936 71H853.016V70.872C856.088 67.672 857.24 64.792 859.096 59.864L872.536 23.64H875.224L888.92 60.568C890.968 66.136 892.504 68.568 894.744 70.872V71H881.88V70.872C882.968 69.016 882.904 64.984 881.176 60.248L878.872 53.976H863.896L862.808 56.92C859.992 64.472 861.592 68.76 862.936 70.872V71ZM864.856 51.416H877.912L871.384 33.752L864.856 51.416Z" fill="black"/>
<path d="M370.369 121V97.7273H378.665C380.475 97.7273 381.975 98.0568 383.165 98.7159C384.354 99.375 385.244 100.277 385.835 101.42C386.426 102.557 386.722 103.837 386.722 105.261C386.722 106.693 386.422 107.981 385.824 109.125C385.233 110.261 384.339 111.163 383.142 111.83C381.953 112.489 380.456 112.818 378.653 112.818H372.949V109.841H378.335C379.479 109.841 380.407 109.644 381.119 109.25C381.831 108.848 382.354 108.303 382.688 107.614C383.021 106.924 383.188 106.14 383.188 105.261C383.188 104.383 383.021 103.602 382.688 102.92C382.354 102.239 381.828 101.705 381.108 101.318C380.396 100.932 379.456 100.739 378.29 100.739H373.881V121H370.369ZM394.038 121V97.7273H397.549V107.841H409.152V97.7273H412.674V121H409.152V110.852H397.549V121H394.038ZM441.204 109.364C441.204 111.848 440.749 113.985 439.84 115.773C438.931 117.553 437.685 118.924 436.102 119.886C434.526 120.841 432.734 121.318 430.727 121.318C428.712 121.318 426.912 120.841 425.329 119.886C423.753 118.924 422.511 117.549 421.602 115.761C420.693 113.973 420.238 111.841 420.238 109.364C420.238 106.879 420.693 104.746 421.602 102.966C422.511 101.178 423.753 99.8068 425.329 98.8523C426.912 97.8902 428.712 97.4091 430.727 97.4091C432.734 97.4091 434.526 97.8902 436.102 98.8523C437.685 99.8068 438.931 101.178 439.84 102.966C440.749 104.746 441.204 106.879 441.204 109.364ZM437.727 109.364C437.727 107.47 437.42 105.875 436.806 104.58C436.2 103.277 435.367 102.292 434.306 101.625C433.253 100.951 432.06 100.614 430.727 100.614C429.386 100.614 428.189 100.951 427.136 101.625C426.083 102.292 425.249 103.277 424.636 104.58C424.03 105.875 423.727 107.47 423.727 109.364C423.727 111.258 424.03 112.856 424.636 114.159C425.249 115.455 426.083 116.439 427.136 117.114C428.189 117.78 429.386 118.114 430.727 118.114C432.06 118.114 433.253 117.78 434.306 117.114C435.367 116.439 436.2 115.455 436.806 114.159C437.42 112.856 437.727 111.258 437.727 109.364ZM446.634 100.75V97.7273H464.645V100.75H457.384V121H453.884V100.75H446.634ZM491.041 109.364C491.041 111.848 490.587 113.985 489.678 115.773C488.769 117.553 487.523 118.924 485.939 119.886C484.363 120.841 482.572 121.318 480.564 121.318C478.549 121.318 476.75 120.841 475.166 119.886C473.591 118.924 472.348 117.549 471.439 115.761C470.53 113.973 470.076 111.841 470.076 109.364C470.076 106.879 470.53 104.746 471.439 102.966C472.348 101.178 473.591 99.8068 475.166 98.8523C476.75 97.8902 478.549 97.4091 480.564 97.4091C482.572 97.4091 484.363 97.8902 485.939 98.8523C487.523 99.8068 488.769 101.178 489.678 102.966C490.587 104.746 491.041 106.879 491.041 109.364ZM487.564 109.364C487.564 107.47 487.257 105.875 486.644 104.58C486.038 103.277 485.204 102.292 484.144 101.625C483.091 100.951 481.898 100.614 480.564 100.614C479.223 100.614 478.026 100.951 476.973 101.625C475.92 102.292 475.087 103.277 474.473 104.58C473.867 105.875 473.564 107.47 473.564 109.364C473.564 111.258 473.867 112.856 474.473 114.159C475.087 115.455 475.92 116.439 476.973 117.114C478.026 117.78 479.223 118.114 480.564 118.114C481.898 118.114 483.091 117.78 484.144 117.114C485.204 116.439 486.038 115.455 486.644 114.159C487.257 112.856 487.564 111.258 487.564 109.364ZM514.369 105.08C514.15 104.39 513.854 103.773 513.483 103.227C513.119 102.674 512.684 102.205 512.176 101.818C511.669 101.424 511.089 101.125 510.438 100.92C509.794 100.716 509.085 100.614 508.312 100.614C507.002 100.614 505.82 100.951 504.767 101.625C503.714 102.299 502.881 103.288 502.267 104.591C501.661 105.886 501.358 107.473 501.358 109.352C501.358 111.239 501.665 112.833 502.278 114.136C502.892 115.439 503.733 116.428 504.801 117.102C505.869 117.777 507.085 118.114 508.449 118.114C509.714 118.114 510.816 117.856 511.756 117.341C512.703 116.826 513.434 116.098 513.949 115.159C514.472 114.212 514.733 113.098 514.733 111.818L515.642 111.989H508.983V109.091H518.131V111.739C518.131 113.693 517.714 115.39 516.881 116.83C516.055 118.261 514.911 119.367 513.449 120.148C511.994 120.928 510.328 121.318 508.449 121.318C506.343 121.318 504.494 120.833 502.903 119.864C501.32 118.894 500.085 117.519 499.199 115.739C498.313 113.951 497.869 111.83 497.869 109.375C497.869 107.519 498.127 105.852 498.642 104.375C499.157 102.898 499.881 101.644 500.812 100.614C501.752 99.5758 502.854 98.7841 504.119 98.2386C505.392 97.6856 506.782 97.4091 508.29 97.4091C509.547 97.4091 510.718 97.5947 511.801 97.9659C512.892 98.3371 513.862 98.8636 514.71 99.5455C515.566 100.227 516.275 101.038 516.835 101.977C517.396 102.909 517.775 103.943 517.972 105.08H514.369ZM525.788 121V97.7273H534.084C535.887 97.7273 537.383 98.0379 538.572 98.6591C539.769 99.2803 540.663 100.14 541.254 101.239C541.845 102.33 542.14 103.591 542.14 105.023C542.14 106.447 541.841 107.701 541.243 108.784C540.652 109.86 539.758 110.697 538.561 111.295C537.371 111.894 535.875 112.193 534.072 112.193H527.788V109.17H533.754C534.89 109.17 535.815 109.008 536.527 108.682C537.246 108.356 537.773 107.883 538.106 107.261C538.44 106.64 538.606 105.894 538.606 105.023C538.606 104.144 538.436 103.383 538.095 102.739C537.762 102.095 537.235 101.602 536.515 101.261C535.803 100.913 534.868 100.739 533.709 100.739H529.299V121H525.788ZM537.277 110.5L543.027 121H539.027L533.39 110.5H537.277ZM551.579 121H547.852L556.227 97.7273H560.284L568.659 121H564.931L558.352 101.955H558.17L551.579 121ZM552.204 111.886H564.295V114.841H552.204V111.886ZM575.219 121V97.7273H583.515C585.325 97.7273 586.825 98.0568 588.015 98.7159C589.204 99.375 590.094 100.277 590.685 101.42C591.276 102.557 591.572 103.837 591.572 105.261C591.572 106.693 591.272 107.981 590.674 109.125C590.083 110.261 589.189 111.163 587.992 111.83C586.803 112.489 585.306 112.818 583.503 112.818H577.799V109.841H583.185C584.329 109.841 585.257 109.644 585.969 109.25C586.681 108.848 587.204 108.303 587.538 107.614C587.871 106.924 588.038 106.14 588.038 105.261C588.038 104.383 587.871 103.602 587.538 102.92C587.204 102.239 586.678 101.705 585.958 101.318C585.246 100.932 584.306 100.739 583.14 100.739H578.731V121H575.219ZM598.888 121V97.7273H602.399V107.841H614.002V97.7273H617.524V121H614.002V110.852H602.399V121H598.888ZM624.043 97.7273H628.031L634.111 108.307H634.361L640.44 97.7273H644.429L635.986 111.864V121H632.486V111.864L624.043 97.7273Z" fill="black"/>
</svg>
