<svg width="1013" height="108" viewBox="0 0 1013 108" fill="none" xmlns="http://www.w3.org/2000/svg">
<path d="M129.199 71H119.279V70.872C122.351 67.672 123.503 64.792 125.359 59.864L138.799 23.64H141.487L155.183 60.568C157.231 66.136 158.767 68.568 161.007 70.872V71H148.143V70.872C149.231 69.016 149.167 64.984 147.439 60.248L145.135 53.976H130.159L129.071 56.92C126.255 64.472 127.855 68.76 129.199 70.872V71ZM131.119 51.416H144.175L137.647 33.752L131.119 51.416ZM206.36 71.192L177.304 31.768L177.56 58.264C177.56 64.024 178.392 66.392 181.976 70.872V71H170.84V70.872C174.04 66.392 174.744 64.024 174.744 58.264V33.176C174.488 29.016 173.336 27.096 169.752 24.28V24.152H180.632L206.808 58.904L206.616 36.888C206.552 31.128 205.784 28.76 202.712 24.28V24.152H213.208V24.28C210.136 28.76 209.304 31.128 209.304 36.888V71L206.36 71.192ZM231.436 71H221.516V70.872C224.588 67.672 225.74 64.792 227.596 59.864L241.036 23.64H243.724L257.42 60.568C259.468 66.136 261.004 68.568 263.244 70.872V71H250.38V70.872C251.468 69.016 251.404 64.984 249.676 60.248L247.372 53.976H232.396L231.308 56.92C228.492 64.472 230.092 68.76 231.436 70.872V71ZM233.356 51.416H246.412L239.884 33.752L233.356 51.416ZM300.285 25.048L301.501 35.992L300.349 36.376C296.317 28.248 292.029 25.752 287.485 25.752C283.133 25.752 280.573 28.056 280.573 31.96C280.573 37.72 286.077 40.28 291.837 43.096C298.109 46.168 304.701 49.56 304.701 58.328C304.701 67.928 297.021 71.96 287.933 71.96C283.645 71.96 278.973 71.064 274.749 69.464L273.469 56.984L274.621 56.536C279.165 65.496 284.093 69.4 290.109 69.4C295.997 69.4 298.557 65.688 298.557 61.4C298.557 55.32 293.565 52.696 288.189 49.944C281.917 46.744 275.069 43.608 275.069 35.416C275.069 26.584 282.173 23.192 289.853 23.192C293.629 23.192 297.277 23.96 300.285 25.048ZM341.875 70.872V71H329.395V70.872C331.443 66.904 331.955 64.664 331.955 59.416V26.52L324.979 26.776C322.355 26.904 317.939 34.072 314.803 38.424L313.651 37.976L316.083 24.152H355.187L357.619 37.976L356.467 38.424C353.139 34.072 349.107 26.904 346.291 26.776L339.315 26.52V59.416C339.315 64.728 339.763 66.904 341.875 70.872ZM371.699 71H361.779V70.872C364.851 67.672 366.003 64.792 367.859 59.864L381.299 23.64H383.987L397.683 60.568C399.731 66.136 401.267 68.568 403.507 70.872V71H390.643V70.872C391.731 69.016 391.667 64.984 389.939 60.248L387.635 53.976H372.659L371.571 56.92C368.755 64.472 370.355 68.76 371.699 70.872V71ZM373.619 51.416H386.675L380.147 33.752L373.619 51.416ZM440.547 25.048L441.763 35.992L440.611 36.376C436.579 28.248 432.291 25.752 427.747 25.752C423.395 25.752 420.835 28.056 420.835 31.96C420.835 37.72 426.339 40.28 432.099 43.096C438.371 46.168 444.963 49.56 444.963 58.328C444.963 67.928 437.283 71.96 428.195 71.96C423.907 71.96 419.235 71.064 415.011 69.464L413.731 56.984L414.883 56.536C419.427 65.496 424.355 69.4 430.371 69.4C436.259 69.4 438.819 65.688 438.819 61.4C438.819 55.32 433.827 52.696 428.451 49.944C422.179 46.744 415.331 43.608 415.331 35.416C415.331 26.584 422.435 23.192 430.115 23.192C433.891 23.192 437.539 23.96 440.547 25.048ZM457.771 71V70.872C459.883 66.904 460.331 64.728 460.331 59.416V35.736C460.331 30.424 459.883 28.248 457.771 24.28V24.152H470.251V24.28C468.139 28.248 467.691 30.424 467.691 35.736V59.416C467.691 64.728 468.139 66.904 470.251 70.872V71H457.771ZM491.399 71H481.479V70.872C484.551 67.672 485.703 64.792 487.559 59.864L500.999 23.64H503.687L517.383 60.568C519.431 66.136 520.967 68.568 523.207 70.872V71H510.343V70.872C511.431 69.016 511.367 64.984 509.639 60.248L507.335 53.976H492.359L491.271 56.92C488.455 64.472 490.055 68.76 491.399 70.872V71ZM493.319 51.416H506.375L499.847 33.752L493.319 51.416ZM613.39 57.944C613.39 65.24 608.078 71 594.766 71H577.934V70.872C579.982 66.904 580.494 64.664 580.494 59.416V35.736C580.494 30.424 579.982 28.248 577.934 24.28V24.152C587.278 24.152 589.518 23.896 594.702 23.896C608.526 23.832 610.958 29.976 610.958 34.84C610.958 39.832 608.334 44.12 602.254 46.168C610.51 47.448 613.39 52.632 613.39 57.944ZM587.854 45.336H595.278C601.486 45.272 603.598 39.96 603.598 35.224C603.598 29.592 600.014 26.456 593.614 26.456C591.118 26.456 589.326 26.712 587.854 27.096V45.336ZM593.87 68.44C601.55 68.44 605.326 64.344 605.326 58.264C605.326 52.248 602.318 47.896 595.854 47.896H587.854V67.672C589.39 68.056 591.438 68.44 593.87 68.44ZM625.898 71V70.872C627.562 66.968 628.394 64.472 628.394 60.184V34.968C628.394 30.616 627.562 28.184 625.898 24.28V24.152H655.466L657.962 35.544L656.81 36.056C653.61 32.856 649.898 26.968 647.274 26.84L635.818 26.392V46.104H641.45C644.202 46.104 646.954 41.816 648.618 39.384H649.834V55.128H648.618C646.954 52.824 644.202 48.664 641.322 48.664H635.818V68.76L647.85 68.312C652.842 68.12 656.874 62.04 660.33 57.176L661.482 57.688L658.666 71H625.898ZM698.663 70.872V71H686.183V70.872C688.231 66.904 688.743 64.664 688.743 59.416V26.52L681.767 26.776C679.143 26.904 674.727 34.072 671.591 38.424L670.439 37.976L672.871 24.152H711.975L714.407 37.976L713.255 38.424C709.927 34.072 705.895 26.904 703.079 26.776L696.103 26.52V59.416C696.103 64.728 696.551 66.904 698.663 70.872ZM765.867 71H754.923L737.515 47.896L748.331 33.944C752.299 28.888 753.387 26.264 751.915 24.28V24.152H763.307V24.28C757.739 27.096 754.859 29.656 751.659 33.816L743.787 43.928L758.187 63C760.683 66.328 762.667 68.632 765.867 70.872V71ZM726.571 71V70.872C728.619 66.904 729.131 64.664 729.131 59.416V35.736C729.131 30.424 728.619 28.248 726.571 24.28V24.152H739.051V24.28C736.939 28.248 736.491 30.424 736.491 35.736V59.416C736.491 64.728 736.939 66.904 739.051 70.872V71H726.571ZM777.096 71V70.872C779.208 66.904 779.656 64.728 779.656 59.416V35.736C779.656 30.424 779.208 28.248 777.096 24.28V24.152H789.576V24.28C787.464 28.248 787.016 30.424 787.016 35.736V59.416C787.016 64.728 787.464 66.904 789.576 70.872V71H777.096ZM837.86 71.192L808.804 31.768L809.06 58.264C809.06 64.024 809.892 66.392 813.476 70.872V71H802.34V70.872C805.54 66.392 806.244 64.024 806.244 58.264V33.176C805.988 29.016 804.836 27.096 801.252 24.28V24.152H812.132L838.308 58.904L838.116 36.888C838.052 31.128 837.284 28.76 834.212 24.28V24.152H844.708V24.28C841.636 28.76 840.804 31.128 840.804 36.888V71L837.86 71.192ZM862.936 71H853.016V70.872C856.088 67.672 857.24 64.792 859.096 59.864L872.536 23.64H875.224L888.92 60.568C890.968 66.136 892.504 68.568 894.744 70.872V71H881.88V70.872C882.968 69.016 882.904 64.984 881.176 60.248L878.872 53.976H863.896L862.808 56.92C859.992 64.472 861.592 68.76 862.936 70.872V71ZM864.856 51.416H877.912L871.384 33.752L864.856 51.416Z" fill="black"/>
</svg>
