<svg width="650" height="108" viewBox="0 0 650 108" fill="none" xmlns="http://www.w3.org/2000/svg">
<g clip-path="url(#clip0_48_2)">
<path d="M89.2635 79.104L90.9275 79.296V80H73.2635V79.296L75.5675 79.104C78.0635 78.912 79.7275 77.568 78.1915 74.048L73.9035 63.744H54.8315L50.9915 73.216C49.2635 77.376 51.9515 78.784 54.5115 79.04L56.4315 79.296V80H41.3275V79.296L42.7355 79.104C45.3595 78.784 47.2795 77.632 49.2635 73.088L65.4555 35.2H67.0555L83.7595 74.112C85.2955 77.76 86.5755 78.848 89.2635 79.104ZM63.7275 41.92L55.4075 62.4H73.3275L64.8155 41.92H63.7275ZM109.547 80H93.9945V79.296L96.5545 79.104C98.2185 78.976 99.4345 77.568 99.4345 74.56V54.784C99.4345 51.904 98.3465 50.88 96.1065 51.584L92.8425 52.544L92.5865 51.776L103.979 47.296L104.491 47.616L103.275 54.592H104.363C107.179 50.432 111.275 47.04 116.395 47.04C122.347 47.04 126.571 50.816 126.571 58.56V74.56C126.571 77.568 127.595 78.976 129.515 79.104L132.139 79.296V80H116.587V79.296L119.147 79.104C121.003 78.976 122.091 77.568 122.091 74.56V59.456C122.091 53.056 119.147 49.472 114.283 49.472C109.931 49.472 105.323 53.568 103.979 58.112L103.915 74.56C103.915 77.568 105.003 78.976 106.859 79.104L109.547 79.296V80ZM145.991 80.96C140.295 80.96 136.135 77.76 136.135 72.448C136.135 66.304 141.895 64 148.423 63.168L153.543 62.528C157.255 62.08 158.983 61.12 158.983 58.88V57.536C158.983 51.84 156.167 47.872 150.727 47.936C144.327 47.936 142.983 53.376 142.535 56.064C142.215 57.728 141.062 58.88 139.399 58.88C137.863 58.88 136.839 57.792 136.903 56.128C137.159 51.904 143.367 47.04 150.599 47.04C158.087 46.976 163.463 50.048 163.463 58.176V74.624C163.463 76.992 164.615 78.016 166.087 78.016C167.943 78.016 169.159 76.672 169.799 74.432L170.503 74.624C169.863 78.272 167.111 80.64 163.783 80.64C160.967 80.64 158.023 79.04 158.919 74.688L159.623 70.976H158.535C156.295 76.608 151.878 80.96 145.991 80.96ZM148.487 77.376C153.479 77.376 158.983 72.32 158.983 64.768V61.76H158.663C157.895 62.72 155.975 63.488 153.543 63.872L150.087 64.384C144.903 65.216 141.255 66.944 141.255 71.616C141.255 75.2 144.007 77.376 148.487 77.376ZM188.279 80.96C182.199 80.96 180.407 78.464 178.039 78.464C176.439 78.464 175.927 79.744 175.735 80.64H175.095L174.455 69.12H175.159C176.503 75.392 182.007 80 187.767 80C192.631 80 195.511 77.376 195.511 73.728C195.511 70.272 193.015 68.096 188.151 66.624L183.095 65.088C178.615 63.744 175.223 60.672 175.223 56C175.223 50.368 180.855 47.04 186.935 47.04C192.247 47.04 193.591 49.024 195.831 49.024C196.983 49.024 197.239 48.192 197.495 47.296H198.135L198.775 57.92H198.007C196.791 52.224 192.439 48 186.807 48C182.647 48 179.703 50.432 179.703 54.272C179.703 57.984 182.327 59.712 186.807 61.12L191.863 62.72C196.791 64.256 200.247 67.136 200.247 71.936C200.247 77.824 194.423 80.96 188.279 80.96ZM216.555 80.64C211.562 80.64 209.771 76.736 209.771 72.192V50.112H204.203V48.512L205.931 48.32C209.515 47.872 211.883 45.76 212.779 41.6L213.099 39.68H214.187V48H223.403L222.699 50.112H214.187V71.744C214.187 75.776 215.851 77.76 218.283 77.76C220.458 77.76 222.187 76.032 223.019 73.28L223.787 73.472C223.147 76.48 221.227 80.64 216.555 80.64ZM237.991 80.96C232.295 80.96 228.135 77.76 228.135 72.448C228.135 66.304 233.895 64 240.423 63.168L245.543 62.528C249.255 62.08 250.983 61.12 250.983 58.88V57.536C250.983 51.84 248.167 47.872 242.727 47.936C236.327 47.936 234.983 53.376 234.535 56.064C234.215 57.728 233.062 58.88 231.399 58.88C229.863 58.88 228.839 57.792 228.903 56.128C229.159 51.904 235.367 47.04 242.599 47.04C250.087 46.976 255.463 50.048 255.463 58.176V74.624C255.463 76.992 256.615 78.016 258.087 78.016C259.943 78.016 261.159 76.672 261.799 74.432L262.503 74.624C261.863 78.272 259.111 80.64 255.783 80.64C252.967 80.64 250.023 79.04 250.919 74.688L251.623 70.976H250.535C248.295 76.608 243.878 80.96 237.991 80.96ZM240.487 77.376C245.479 77.376 250.983 72.32 250.983 64.768V61.76H250.663C249.895 62.72 247.975 63.488 245.543 63.872L242.087 64.384C236.903 65.216 233.255 66.944 233.255 71.616C233.255 75.2 236.007 77.376 240.487 77.376ZM280.279 80.96C274.199 80.96 272.407 78.464 270.039 78.464C268.439 78.464 267.927 79.744 267.735 80.64H267.095L266.455 69.12H267.159C268.503 75.392 274.007 80 279.767 80C284.631 80 287.511 77.376 287.511 73.728C287.511 70.272 285.015 68.096 280.151 66.624L275.095 65.088C270.615 63.744 267.223 60.672 267.223 56C267.223 50.368 272.855 47.04 278.935 47.04C284.247 47.04 285.591 49.024 287.831 49.024C288.983 49.024 289.239 48.192 289.495 47.296H290.135L290.775 57.92H290.007C288.791 52.224 284.439 48 278.807 48C274.647 48 271.703 50.432 271.703 54.272C271.703 57.984 274.327 59.712 278.807 61.12L283.863 62.72C288.791 64.256 292.247 67.136 292.247 71.936C292.247 77.824 286.423 80.96 280.279 80.96ZM305.611 39.872C303.691 39.872 302.027 38.464 302.027 36.608C302.027 34.56 303.691 33.216 305.611 33.216C307.595 33.216 309.195 34.56 309.195 36.608C309.195 38.464 307.595 39.872 305.611 39.872ZM313.803 80H298.251V79.296L300.811 79.104C302.667 78.976 303.691 77.568 303.691 74.56V54.528C303.691 51.456 302.475 50.688 300.363 51.328L297.099 52.288L296.843 51.584L307.723 47.232L308.171 47.552V74.56C308.171 77.568 309.259 78.976 311.115 79.104L313.803 79.296V80ZM327.991 80.96C322.295 80.96 318.135 77.76 318.135 72.448C318.135 66.304 323.895 64 330.423 63.168L335.543 62.528C339.255 62.08 340.983 61.12 340.983 58.88V57.536C340.983 51.84 338.167 47.872 332.727 47.936C326.327 47.936 324.983 53.376 324.535 56.064C324.215 57.728 323.062 58.88 321.399 58.88C319.863 58.88 318.839 57.792 318.903 56.128C319.159 51.904 325.367 47.04 332.599 47.04C340.087 46.976 345.463 50.048 345.463 58.176V74.624C345.463 76.992 346.615 78.016 348.087 78.016C349.943 78.016 351.159 76.672 351.799 74.432L352.503 74.624C351.863 78.272 349.111 80.64 345.783 80.64C342.967 80.64 340.023 79.04 340.919 74.688L341.623 70.976H340.535C338.295 76.608 333.878 80.96 327.991 80.96ZM330.487 77.376C335.479 77.376 340.983 72.32 340.983 64.768V61.76H340.663C339.895 62.72 337.975 63.488 335.543 63.872L332.087 64.384C326.903 65.216 323.255 66.944 323.255 71.616C323.255 75.2 326.007 77.376 330.487 77.376ZM395.239 80H372.327V79.296L375.015 79.104C377.959 78.912 378.855 77.12 378.855 74.112V41.088C378.855 38.08 377.959 36.288 375.015 36.096L372.263 35.904V35.2H394.535C405.159 35.2 409.383 40.384 409.383 45.44C409.383 51.072 404.903 54.464 399.271 55.232V56.32C407.719 56.896 412.519 61.76 412.519 67.904C412.519 74.304 407.527 80 395.239 80ZM383.719 41.088V55.552H393.383C400.871 55.552 404.326 51.136 404.263 45.44C404.199 40.128 401.255 36.224 392.551 36.224H388.519C384.807 36.224 383.719 37.376 383.719 41.088ZM390.183 78.912H392.231C402.279 78.912 407.079 74.56 407.015 67.904C406.951 61.696 403.303 56.704 393.127 56.704H383.719V74.112C383.719 78.848 385.447 78.912 390.183 78.912ZM434.819 80.96C426.243 80.96 418.883 74.432 418.947 64.256C419.011 54.016 427.139 47.04 435.651 47.04C443.459 47.04 448.195 51.584 448.195 56.128C448.195 60.096 444.675 60.8 441.475 60.8H424.131C424.067 61.504 424.003 62.144 424.003 62.784C424.067 71.424 428.995 78.336 436.739 78.336C441.923 78.336 446.467 74.944 448.195 70.656L448.899 70.976C447.491 75.264 442.819 80.96 434.819 80.96ZM424.195 59.584H437.315C439.939 59.584 443.267 58.496 443.267 55.04C443.267 51.52 440.707 47.936 435.651 47.936C430.083 47.936 424.963 52.864 424.195 59.584ZM464.555 80.64C459.562 80.64 457.771 76.736 457.771 72.192V50.112H452.203V48.512L453.931 48.32C457.515 47.872 459.883 45.76 460.779 41.6L461.099 39.68H462.187V48H471.403L470.699 50.112H462.187V71.744C462.187 75.776 463.851 77.76 466.283 77.76C468.458 77.76 470.187 76.032 471.019 73.28L471.787 73.472C471.147 76.48 469.227 80.64 464.555 80.64ZM490.407 80H474.855V79.296L477.415 79.104C479.271 78.976 480.295 78.08 480.295 75.072V37.888C480.295 34.816 479.079 34.56 476.967 35.136L473.831 36.16L473.447 35.392L484.327 31.04L484.775 31.36V58.496L484.199 63.296H485.223L495.399 53.248C497.575 51.136 497.063 49.088 495.143 48.832L493.223 48.64V48H506.727V48.64L505.382 48.832C502.375 49.216 499.751 50.752 497.127 53.312L490.087 60.032L503.463 76.16C504.999 78.144 506.279 78.848 508.391 79.104L509.927 79.36V80H495.463V79.36L497.511 79.168C499.047 78.976 499.239 78.08 498.087 76.672L486.951 63.04L484.775 65.216V75.072C484.775 78.08 485.863 78.976 487.719 79.104L490.407 79.296V80ZM520.361 39.872C518.441 39.872 516.777 38.464 516.777 36.608C516.777 34.56 518.441 33.216 520.361 33.216C522.345 33.216 523.945 34.56 523.945 36.608C523.945 38.464 522.345 39.872 520.361 39.872ZM528.553 80H513.001V79.296L515.561 79.104C517.417 78.976 518.441 77.568 518.441 74.56V54.528C518.441 51.456 517.225 50.688 515.113 51.328L511.849 52.288L511.593 51.584L522.473 47.232L522.921 47.552V74.56C522.921 77.568 524.009 78.976 525.865 79.104L528.553 79.296V80ZM547.797 80H532.245V79.296L534.805 79.104C536.469 78.976 537.685 77.568 537.685 74.56V54.784C537.685 51.904 536.597 50.88 534.357 51.584L531.093 52.544L530.837 51.776L542.229 47.296L542.741 47.616L541.525 54.592H542.613C545.429 50.432 549.525 47.04 554.645 47.04C560.597 47.04 564.821 50.816 564.821 58.56V74.56C564.821 77.568 565.845 78.976 567.765 79.104L570.389 79.296V80H554.837V79.296L557.397 79.104C559.253 78.976 560.341 77.568 560.341 74.56V59.456C560.341 53.056 557.397 49.472 552.533 49.472C548.181 49.472 543.573 53.568 542.229 58.112L542.165 74.56C542.165 77.568 543.253 78.976 545.109 79.104L547.797 79.296V80ZM584.241 80.96C578.545 80.96 574.385 77.76 574.385 72.448C574.385 66.304 580.145 64 586.673 63.168L591.793 62.528C595.505 62.08 597.233 61.12 597.233 58.88V57.536C597.233 51.84 594.417 47.872 588.977 47.936C582.577 47.936 581.233 53.376 580.785 56.064C580.465 57.728 579.312 58.88 577.649 58.88C576.113 58.88 575.089 57.792 575.153 56.128C575.409 51.904 581.617 47.04 588.849 47.04C596.337 46.976 601.713 50.048 601.713 58.176V74.624C601.713 76.992 602.865 78.016 604.337 78.016C606.193 78.016 607.409 76.672 608.049 74.432L608.753 74.624C608.113 78.272 605.361 80.64 602.033 80.64C599.217 80.64 596.273 79.04 597.169 74.688L597.873 70.976H596.785C594.545 76.608 590.128 80.96 584.241 80.96ZM586.737 77.376C591.729 77.376 597.233 72.32 597.233 64.768V61.76H596.913C596.145 62.72 594.225 63.488 591.793 63.872L588.337 64.384C583.153 65.216 579.505 66.944 579.505 71.616C579.505 75.2 582.257 77.376 586.737 77.376Z" fill="black"/>
</g>
<defs>
<clipPath id="clip0_48_2">
<rect width="650" height="108" fill="white"/>
</clipPath>
</defs>
</svg>
