<svg width="650" height="108" viewBox="0 0 650 108" fill="none" xmlns="http://www.w3.org/2000/svg">
<g clip-path="url(#clip0_1_9)">
<path d="M123.862 53.056L116.054 31.488L108.118 53.056H123.862ZM105.686 71.872V72H97.878V71.872C100.566 69.184 101.334 67.2 102.998 62.72L117.142 24.576H118.678L133.014 63.36C134.934 68.48 135.766 69.952 137.942 71.872V72H127.766V71.872C128.726 70.4 129.11 67.392 127.51 63.104L124.31 54.336H107.606L104.982 61.504C102.87 67.136 104.342 70.208 105.686 71.872ZM148.943 71.872V72H141.455V71.872C142.671 69.056 142.863 66.624 142.863 62.144V50.176C142.863 46.912 141.519 45.056 140.047 43.776V43.648L147.279 40.256V46.208L147.535 46.272C150.543 42.688 154.255 40.576 158.479 40.576C164.367 40.576 167.503 44.16 167.503 49.92V62.08C167.503 66.688 167.567 69.056 168.911 71.872V72H161.423V71.872C162.575 69.056 162.831 66.368 162.831 62.144V50.944C162.831 46.976 161.103 43.712 156.239 43.712C153.231 43.712 150.031 44.928 147.535 47.488V62.08C147.535 66.496 147.663 69.056 148.943 71.872ZM183.968 70.144C186.848 70.144 189.536 68.864 191.008 67.456V56.832C184.992 57.92 178.72 60.288 178.72 65.472C178.72 68.224 180.448 70.144 183.968 70.144ZM195.744 72.768C192.736 72.768 191.264 70.912 191.008 68.544C188.896 70.912 185.44 72.96 181.344 72.96C177.184 72.96 174.176 70.848 174.176 66.944C174.176 59.904 183.968 56.704 191.008 55.872V49.472C191.008 46.016 189.536 43.392 184.416 43.392C181.408 43.392 178.08 44.352 175.648 46.208L175.328 45.824C177.888 42.752 182.112 40.576 187.168 40.576C194.016 40.576 195.68 44.288 195.68 48.32V67.136C195.68 68.736 196.384 69.888 198.176 69.888C199.392 69.888 200.352 69.312 201.248 68.544L201.44 68.672C200.736 70.336 199.136 72.768 195.744 72.768ZM222.986 41.792L223.626 48.064L223.178 48.192C220.362 43.136 217.29 41.728 214.218 41.728C210.506 41.728 208.074 43.904 208.074 46.976C208.074 50.816 211.914 52.16 216.266 53.952C220.746 55.744 225.354 57.92 225.354 64C225.354 69.824 220.81 72.96 213.77 72.96C210.058 72.96 207.05 72.064 204.874 71.168L204.234 63.872L204.682 63.744C207.306 69.376 210.378 71.808 214.666 71.808C219.402 71.808 221.514 68.864 221.514 65.728C221.514 61.888 218.314 60.352 214.026 58.624C209.802 56.896 204.746 54.848 204.746 48.896C204.746 42.688 210.186 40.576 215.562 40.576C218.378 40.576 221.258 41.152 222.986 41.792ZM238.778 72.96C235.385 72.96 231.994 71.36 231.994 65.6V42.688H228.538V42.432L236.345 35.712H236.666V41.536H245.626V42.688H236.666V65.6C236.666 68.736 238.074 70.4 241.274 70.4C243.578 70.4 245.434 69.568 246.138 69.184L246.266 69.44C244.986 71.104 242.362 72.96 238.778 72.96ZM259.218 70.144C262.098 70.144 264.786 68.864 266.258 67.456V56.832C260.242 57.92 253.97 60.288 253.97 65.472C253.97 68.224 255.698 70.144 259.218 70.144ZM270.994 72.768C267.986 72.768 266.514 70.912 266.258 68.544C264.146 70.912 260.69 72.96 256.594 72.96C252.434 72.96 249.426 70.848 249.426 66.944C249.426 59.904 259.218 56.704 266.258 55.872V49.472C266.258 46.016 264.786 43.392 259.666 43.392C256.658 43.392 253.33 44.352 250.898 46.208L250.578 45.824C253.138 42.752 257.362 40.576 262.418 40.576C269.266 40.576 270.93 44.288 270.93 48.32V67.136C270.93 68.736 271.634 69.888 273.426 69.888C274.642 69.888 275.602 69.312 276.498 68.544L276.69 68.672C275.986 70.336 274.386 72.768 270.994 72.768ZM298.236 41.792L298.876 48.064L298.428 48.192C295.612 43.136 292.54 41.728 289.468 41.728C285.756 41.728 283.324 43.904 283.324 46.976C283.324 50.816 287.164 52.16 291.516 53.952C295.996 55.744 300.604 57.92 300.604 64C300.604 69.824 296.06 72.96 289.02 72.96C285.308 72.96 282.3 72.064 280.124 71.168L279.484 63.872L279.932 63.744C282.556 69.376 285.628 71.808 289.916 71.808C294.652 71.808 296.764 68.864 296.764 65.728C296.764 61.888 293.564 60.352 289.276 58.624C285.052 56.896 279.996 54.848 279.996 48.896C279.996 42.688 285.436 40.576 290.812 40.576C293.628 40.576 296.508 41.152 298.236 41.792ZM311.923 29.824C311.923 31.616 310.515 33.024 308.787 33.024C307.059 33.024 305.587 31.616 305.587 29.824C305.587 28.096 307.059 26.624 308.787 26.624C310.515 26.624 311.923 28.096 311.923 29.824ZM305.267 72V71.872C306.291 69.056 306.675 66.56 306.675 62.144V50.24C306.675 47.104 305.331 45.184 303.859 43.904V43.648L311.347 40.256V62.08C311.347 66.496 311.475 69.056 312.755 71.872V72H305.267ZM327.781 70.144C330.661 70.144 333.349 68.864 334.821 67.456V56.832C328.805 57.92 322.533 60.288 322.533 65.472C322.533 68.224 324.26 70.144 327.781 70.144ZM339.557 72.768C336.549 72.768 335.077 70.912 334.821 68.544C332.708 70.912 329.253 72.96 325.157 72.96C320.997 72.96 317.989 70.848 317.989 66.944C317.989 59.904 327.781 56.704 334.821 55.872V49.472C334.821 46.016 333.349 43.392 328.229 43.392C325.22 43.392 321.893 44.352 319.461 46.208L319.141 45.824C321.701 42.752 325.925 40.576 330.981 40.576C337.829 40.576 339.493 44.288 339.493 48.32V67.136C339.493 68.736 340.197 69.888 341.989 69.888C343.205 69.888 344.165 69.312 345.061 68.544L345.253 68.672C344.549 70.336 342.949 72.768 339.557 72.768ZM375.01 72H359.202V71.872C361.25 68.608 361.762 66.752 361.762 62.4V34.752C361.762 30.4 361.25 28.544 359.202 25.28V25.152C369.186 25.152 370.21 24.896 374.882 24.896C388.322 24.832 390.562 31.04 390.562 35.776C390.562 41.024 387.81 45.504 381.986 47.232C389.922 48.256 392.866 53.504 392.866 59.008C392.866 66.496 387.49 72 375.01 72ZM367.01 46.976H376.29C383.138 46.976 385.442 41.344 385.442 36.16C385.442 29.632 381.538 26.176 374.242 26.176C371.426 26.176 368.994 26.368 367.01 26.624V46.976ZM374.498 70.72C383.202 70.72 387.17 66.176 387.17 59.264C387.17 52.8 383.842 48.256 376.866 48.256H367.01V70.144C369.058 70.464 371.682 70.72 374.498 70.72ZM411.822 41.728C406.702 41.728 403.438 45.76 402.606 51.904L418.606 51.584V51.072C418.606 44.672 416.238 41.728 411.822 41.728ZM423.918 64.256C422.318 69.248 417.902 72.96 411.63 72.96C403.182 72.96 397.549 66.432 397.549 57.28C397.549 47.104 404.654 40.576 412.078 40.576C419.502 40.576 424.238 46.976 423.79 52.928H402.478C402.414 53.632 402.414 54.336 402.414 55.104C402.414 63.68 406.51 68.864 413.742 68.864C417.646 68.864 421.422 67.328 423.598 64.064L423.918 64.256ZM437.403 72.96C434.01 72.96 430.619 71.36 430.619 65.6V42.688H427.163V42.432L434.97 35.712H435.291V41.536H444.251V42.688H435.291V65.6C435.291 68.736 436.699 70.4 439.899 70.4C442.203 70.4 444.059 69.568 444.763 69.184L444.891 69.44C443.611 71.104 440.987 72.96 437.403 72.96ZM448.514 72V71.872C449.538 69.888 449.922 67.776 449.922 63.808V31.232C449.922 28.224 448.578 26.496 447.106 25.344V25.216L454.594 22.144V63.744C454.594 67.712 454.914 69.888 456.066 71.872V72H448.514ZM474.434 72H467.202L455.682 56.064L464.002 46.848C465.602 45.056 466.178 43.008 464.514 41.664V41.536H472.322V41.664C468.866 43.2 467.33 44.864 465.026 47.488L459.586 53.632L468.61 66.112C470.786 69.056 472.194 70.656 474.434 71.872V72ZM484.486 29.824C484.486 31.616 483.078 33.024 481.35 33.024C479.622 33.024 478.15 31.616 478.15 29.824C478.15 28.096 479.622 26.624 481.35 26.624C483.078 26.624 484.486 28.096 484.486 29.824ZM477.83 72V71.872C478.854 69.056 479.238 66.56 479.238 62.144V50.24C479.238 47.104 477.894 45.184 476.422 43.904V43.648L483.91 40.256V62.08C483.91 66.496 484.038 69.056 485.318 71.872V72H477.83ZM499.255 71.872V72H491.767V71.872C492.983 69.056 493.175 66.624 493.175 62.144V50.176C493.175 46.912 491.831 45.056 490.359 43.776V43.648L497.591 40.256V46.208L497.847 46.272C500.855 42.688 504.567 40.576 508.791 40.576C514.679 40.576 517.815 44.16 517.815 49.92V62.08C517.815 66.688 517.879 69.056 519.223 71.872V72H511.735V71.872C512.887 69.056 513.143 66.368 513.143 62.144V50.944C513.143 46.976 511.415 43.712 506.551 43.712C503.543 43.712 500.343 44.928 497.847 47.488V62.08C497.847 66.496 497.975 69.056 499.255 71.872ZM534.281 70.144C537.161 70.144 539.849 68.864 541.321 67.456V56.832C535.305 57.92 529.033 60.288 529.033 65.472C529.033 68.224 530.76 70.144 534.281 70.144ZM546.057 72.768C543.049 72.768 541.577 70.912 541.321 68.544C539.208 70.912 535.753 72.96 531.657 72.96C527.497 72.96 524.489 70.848 524.489 66.944C524.489 59.904 534.281 56.704 541.321 55.872V49.472C541.321 46.016 539.849 43.392 534.729 43.392C531.72 43.392 528.393 44.352 525.961 46.208L525.641 45.824C528.201 42.752 532.425 40.576 537.481 40.576C544.329 40.576 545.993 44.288 545.993 48.32V67.136C545.993 68.736 546.697 69.888 548.489 69.888C549.705 69.888 550.665 69.312 551.561 68.544L551.753 68.672C551.049 70.336 549.449 72.768 546.057 72.768Z" fill="black"/>
<path d="M273.735 91.04H273.275V92.98C273.275 93.22 273.275 93.4667 273.275 93.72C273.288 93.96 273.295 94.2133 273.295 94.48C273.308 94.7733 273.468 94.94 273.775 94.98L274.595 95.06C274.915 95.1 275.075 95.2667 275.075 95.56C275.075 95.8533 274.908 96 274.575 96H269.755C269.422 96 269.255 95.8533 269.255 95.56C269.255 95.2667 269.415 95.1067 269.735 95.08L270.455 95C270.762 94.96 270.922 94.7867 270.935 94.48C270.935 94.16 270.935 93.84 270.935 93.52C270.948 93.1867 270.955 92.8533 270.955 92.52V86.8C270.955 86.4667 270.948 86.14 270.935 85.82C270.935 85.4867 270.935 85.1533 270.935 84.82C270.908 84.5133 270.748 84.34 270.455 84.3L269.735 84.22C269.415 84.18 269.255 84.02 269.255 83.74C269.255 83.4467 269.422 83.3 269.755 83.3H274.435C275.062 83.3 275.682 83.36 276.295 83.48C276.908 83.5867 277.455 83.7867 277.935 84.08C278.428 84.36 278.822 84.7467 279.115 85.24C279.422 85.72 279.575 86.3333 279.575 87.08C279.575 87.8933 279.395 88.56 279.035 89.08C278.675 89.5867 278.208 89.9867 277.635 90.28C277.075 90.5733 276.448 90.7733 275.755 90.88C275.075 90.9867 274.402 91.04 273.735 91.04ZM274.175 84.28H273.315C273.302 84.6933 273.288 85.1 273.275 85.5C273.275 85.9 273.275 86.3133 273.275 86.74V90.06H274.035C275.182 90.06 276.015 89.7867 276.535 89.24C277.055 88.6933 277.315 87.9867 277.315 87.12C277.315 86.2 277.062 85.5 276.555 85.02C276.062 84.5267 275.268 84.28 274.175 84.28ZM289.98 94.56C289.993 94.84 290.147 95.0133 290.44 95.08L290.78 95.14C291.073 95.2067 291.22 95.3667 291.22 95.62C291.22 95.8733 291.053 96 290.72 96H287.02C286.687 96 286.52 95.8733 286.52 95.62C286.52 95.38 286.673 95.2267 286.98 95.16L287.4 95.08C287.693 95.0133 287.847 94.84 287.86 94.56V90.2C287.86 89.4 287.76 88.8333 287.56 88.5C287.36 88.1533 287.007 87.98 286.5 87.98C286.087 87.98 285.687 88.08 285.3 88.28C284.913 88.4667 284.507 88.7733 284.08 89.2V94.54C284.08 94.8467 284.227 95.0267 284.52 95.08L284.86 95.14C285.153 95.2067 285.3 95.3667 285.3 95.62C285.3 95.8733 285.133 96 284.8 96H281.12C280.787 96 280.62 95.8733 280.62 95.62C280.62 95.38 280.773 95.2267 281.08 95.16L281.48 95.08C281.773 95.0133 281.927 94.84 281.94 94.56V84.34C281.94 84.0333 281.787 83.86 281.48 83.82L280.88 83.74C280.573 83.7 280.42 83.56 280.42 83.32C280.42 83.08 280.56 82.92 280.84 82.84L283.46 82.16C283.527 82.1333 283.58 82.12 283.62 82.12C283.673 82.12 283.727 82.12 283.78 82.12C283.873 82.12 283.933 82.1333 283.96 82.16C284.04 82.2133 284.08 82.3733 284.08 82.64L284.02 84.96V88.24C284.54 87.6533 285.06 87.22 285.58 86.94C286.1 86.66 286.687 86.52 287.34 86.52C288.22 86.52 288.88 86.7933 289.32 87.34C289.76 87.8733 289.98 88.7533 289.98 89.98V94.56ZM297.079 86.52C297.772 86.52 298.405 86.6533 298.979 86.92C299.552 87.1733 300.039 87.5267 300.439 87.98C300.852 88.42 301.165 88.94 301.379 89.54C301.605 90.1267 301.719 90.76 301.719 91.44C301.719 92.1333 301.605 92.78 301.379 93.38C301.165 93.9667 300.859 94.48 300.459 94.92C300.059 95.3467 299.572 95.6867 298.999 95.94C298.425 96.18 297.785 96.3 297.079 96.3C296.372 96.3 295.732 96.18 295.159 95.94C294.585 95.6867 294.099 95.3467 293.699 94.92C293.299 94.48 292.985 93.9667 292.759 93.38C292.545 92.78 292.439 92.1333 292.439 91.44C292.439 90.76 292.545 90.12 292.759 89.52C292.985 88.92 293.299 88.4 293.699 87.96C294.112 87.52 294.599 87.1733 295.159 86.92C295.732 86.6533 296.372 86.52 297.079 86.52ZM297.079 87.42C295.545 87.42 294.779 88.7533 294.779 91.42C294.779 94.06 295.545 95.38 297.079 95.38C298.612 95.38 299.379 94.06 299.379 91.42C299.379 88.7533 298.612 87.42 297.079 87.42ZM308.061 94.68C308.208 94.6 308.335 94.56 308.441 94.56C308.548 94.56 308.641 94.6067 308.721 94.7C308.895 94.9133 308.881 95.1267 308.681 95.34C308.428 95.6067 308.115 95.82 307.741 95.98C307.381 96.1267 306.948 96.2 306.441 96.2C305.708 96.2 305.128 96.02 304.701 95.66C304.288 95.2867 304.081 94.7067 304.081 93.92C304.081 93.7467 304.081 93.5933 304.081 93.46C304.081 93.3133 304.088 93.1733 304.101 93.04V88.48C304.101 88.1467 303.935 87.98 303.601 87.98H303.181C302.848 87.98 302.681 87.82 302.681 87.5C302.681 87.1933 302.835 87.02 303.141 86.98L303.841 86.9C304.121 86.86 304.288 86.7 304.341 86.42L304.701 84.62C304.755 84.3267 304.935 84.18 305.241 84.18H305.801C306.121 84.18 306.281 84.3467 306.281 84.68L306.241 86.36C306.241 86.6933 306.408 86.86 306.741 86.86H308.121C308.455 86.86 308.621 87.0267 308.621 87.36V87.48C308.621 87.8133 308.455 87.98 308.121 87.98H306.721C306.388 87.98 306.221 88.1467 306.221 88.48V93.54C306.221 94.0333 306.315 94.3867 306.501 94.6C306.701 94.8133 306.955 94.92 307.261 94.92C307.368 94.92 307.488 94.9067 307.621 94.88C307.768 94.84 307.915 94.7733 308.061 94.68ZM314.344 86.52C315.038 86.52 315.671 86.6533 316.244 86.92C316.818 87.1733 317.304 87.5267 317.704 87.98C318.118 88.42 318.431 88.94 318.644 89.54C318.871 90.1267 318.984 90.76 318.984 91.44C318.984 92.1333 318.871 92.78 318.644 93.38C318.431 93.9667 318.124 94.48 317.724 94.92C317.324 95.3467 316.838 95.6867 316.264 95.94C315.691 96.18 315.051 96.3 314.344 96.3C313.638 96.3 312.998 96.18 312.424 95.94C311.851 95.6867 311.364 95.3467 310.964 94.92C310.564 94.48 310.251 93.9667 310.024 93.38C309.811 92.78 309.704 92.1333 309.704 91.44C309.704 90.76 309.811 90.12 310.024 89.52C310.251 88.92 310.564 88.4 310.964 87.96C311.378 87.52 311.864 87.1733 312.424 86.92C312.998 86.6533 313.638 86.52 314.344 86.52ZM314.344 87.42C312.811 87.42 312.044 88.7533 312.044 91.42C312.044 94.06 312.811 95.38 314.344 95.38C315.878 95.38 316.644 94.06 316.644 91.42C316.644 88.7533 315.878 87.42 314.344 87.42ZM329.527 87.12V87.54C329.527 87.8733 329.36 88.04 329.027 88.04H327.667C327.96 88.4933 328.107 89.0333 328.107 89.66C328.107 90.1933 328.007 90.66 327.807 91.06C327.607 91.4467 327.34 91.7733 327.007 92.04C326.674 92.2933 326.28 92.4867 325.827 92.62C325.387 92.74 324.927 92.8 324.447 92.8C323.914 92.8 323.44 92.7333 323.027 92.6C322.934 92.7467 322.86 92.8867 322.807 93.02C322.754 93.14 322.727 93.28 322.727 93.44C322.727 93.72 322.82 93.9333 323.007 94.08C323.207 94.2133 323.534 94.28 323.987 94.28H326.027C327.24 94.28 328.107 94.4867 328.627 94.9C329.16 95.3 329.427 95.8667 329.427 96.6C329.427 97.24 329.254 97.7733 328.907 98.2C328.56 98.64 328.127 98.9867 327.607 99.24C327.1 99.4933 326.54 99.6733 325.927 99.78C325.327 99.8867 324.774 99.94 324.267 99.94C322.854 99.94 321.847 99.7467 321.247 99.36C320.62 99.0133 320.307 98.52 320.307 97.88C320.307 97.4933 320.447 97.1333 320.727 96.8C321.007 96.4667 321.454 96.1467 322.067 95.84C321.694 95.6533 321.427 95.4267 321.267 95.16C321.107 94.88 321.027 94.5867 321.027 94.28C321.027 93.8933 321.14 93.5467 321.367 93.24C321.594 92.9333 321.92 92.6267 322.347 92.32C321.867 92.0533 321.494 91.7 321.227 91.26C320.96 90.8067 320.827 90.2733 320.827 89.66C320.827 89.14 320.927 88.6867 321.127 88.3C321.327 87.9 321.594 87.5733 321.927 87.32C322.26 87.0533 322.647 86.8533 323.087 86.72C323.527 86.5867 323.987 86.52 324.467 86.52C325.48 86.52 326.32 86.7733 326.987 87.28L328.867 86.66C328.934 86.6333 328.994 86.6133 329.047 86.6C329.1 86.5867 329.154 86.58 329.207 86.58C329.354 86.58 329.44 86.64 329.467 86.76C329.507 86.88 329.527 87 329.527 87.12ZM324.427 91.98C324.987 91.98 325.414 91.7733 325.707 91.36C326.014 90.9333 326.167 90.36 326.167 89.64C326.167 88.9333 326.02 88.3733 325.727 87.96C325.434 87.5333 325.014 87.32 324.467 87.32C323.907 87.32 323.48 87.5333 323.187 87.96C322.907 88.3867 322.767 88.9533 322.767 89.66C322.767 90.38 322.907 90.9467 323.187 91.36C323.467 91.7733 323.88 91.98 324.427 91.98ZM325.867 96.16H323.767C323.554 96.16 323.36 96.1467 323.187 96.12C323.014 96.1067 322.854 96.0867 322.707 96.06C322.387 96.5 322.227 96.9467 322.227 97.4C322.227 98 322.434 98.42 322.847 98.66C323.26 98.9 323.807 99.02 324.487 99.02C325.5 99.02 326.274 98.8467 326.807 98.5C327.34 98.1667 327.607 97.7667 327.607 97.3C327.607 96.98 327.48 96.7133 327.227 96.5C327.094 96.3933 326.92 96.3067 326.707 96.24C326.494 96.1867 326.214 96.16 325.867 96.16ZM333.762 86.62C333.816 86.66 333.856 86.7133 333.882 86.78C333.909 86.8467 333.929 86.9533 333.942 87.1L334.082 88.76C334.442 88.0533 334.856 87.5067 335.322 87.12C335.802 86.72 336.289 86.52 336.782 86.52C337.049 86.52 337.322 86.6 337.602 86.76C337.882 86.92 338.062 87.1933 338.142 87.58C338.142 87.9533 338.029 88.2533 337.802 88.48C337.576 88.6933 337.269 88.8 336.882 88.8C336.429 88.8 336.002 88.5933 335.602 88.18L335.502 88.08C335.209 88.3467 334.942 88.6467 334.702 88.98C334.476 89.3 334.276 89.6867 334.102 90.14V94.5C334.116 94.8067 334.269 94.9867 334.562 95.04L335.202 95.16C335.509 95.2267 335.662 95.38 335.662 95.62C335.662 95.8733 335.496 96 335.162 96H331.162C330.829 96 330.662 95.8733 330.662 95.62C330.662 95.38 330.816 95.2267 331.122 95.16L331.522 95.08C331.816 95.0133 331.969 94.84 331.982 94.56V90.94C331.982 90.6733 331.982 90.4333 331.982 90.22C331.982 90.0067 331.976 89.82 331.962 89.66C331.949 89.5533 331.942 89.4533 331.942 89.36C331.942 89.2667 331.942 89.1667 331.942 89.06C331.916 88.7533 331.756 88.58 331.462 88.54L330.982 88.48C330.676 88.44 330.522 88.3 330.522 88.06C330.522 87.8333 330.656 87.6667 330.922 87.56L333.242 86.66C333.362 86.6067 333.476 86.58 333.582 86.58C333.662 86.58 333.722 86.5933 333.762 86.62ZM347.88 94.64C347.907 94.6133 347.993 94.6667 348.14 94.8C348.3 94.96 348.293 95.16 348.12 95.4C347.907 95.7067 347.673 95.9133 347.42 96.02C347.167 96.14 346.867 96.2 346.52 96.2C345.973 96.2 345.54 96.0867 345.22 95.86C344.913 95.62 344.7 95.3067 344.58 94.92C344.153 95.3467 343.74 95.6867 343.34 95.94C342.94 96.18 342.427 96.3 341.8 96.3C341.067 96.3 340.447 96.1 339.94 95.7C339.447 95.3 339.2 94.7133 339.2 93.94C339.2 93.42 339.34 92.9733 339.62 92.6C339.913 92.2267 340.273 91.9067 340.7 91.64C341.14 91.3733 341.607 91.1533 342.1 90.98C342.593 90.8067 343.053 90.66 343.48 90.54L344.5 90.24V89.72C344.5 88.84 344.367 88.24 344.1 87.92C343.847 87.5867 343.407 87.42 342.78 87.42C342.713 87.42 342.647 87.42 342.58 87.42C342.527 87.42 342.467 87.4267 342.4 87.44C342.133 87.4533 341.967 87.6133 341.9 87.92L341.72 88.74C341.56 89.54 341.16 89.94 340.52 89.94C340.253 89.94 340.027 89.86 339.84 89.7C339.653 89.5267 339.547 89.3067 339.52 89.04C339.64 88.2933 340.04 87.6867 340.72 87.22C341.413 86.7533 342.32 86.52 343.44 86.52C344.547 86.52 345.353 86.7867 345.86 87.32C346.367 87.8533 346.62 88.7933 346.62 90.14V94.16C346.62 94.76 346.807 95.06 347.18 95.06C347.34 95.06 347.487 95.0133 347.62 94.92C347.713 94.8533 347.773 94.8 347.8 94.76C347.827 94.7067 347.853 94.6667 347.88 94.64ZM344.5 94.14V91.04C344.18 91.12 343.833 91.22 343.46 91.34C343.1 91.46 342.76 91.6133 342.44 91.8C342.12 91.9867 341.853 92.22 341.64 92.5C341.427 92.7667 341.32 93.0933 341.32 93.48C341.32 93.9333 341.453 94.2867 341.72 94.54C342 94.7933 342.367 94.92 342.82 94.92C343.087 94.92 343.333 94.8667 343.56 94.76C343.8 94.6533 344.113 94.4467 344.5 94.14ZM352.199 86.62C352.306 86.6867 352.366 86.84 352.379 87.08L352.439 87.86C352.866 87.4067 353.306 87.0733 353.759 86.86C354.226 86.6333 354.746 86.52 355.319 86.52C355.986 86.52 356.553 86.6667 357.019 86.96C357.486 87.24 357.866 87.6133 358.159 88.08C358.466 88.5333 358.686 89.0467 358.819 89.62C358.966 90.1933 359.039 90.7667 359.039 91.34C359.039 91.9533 358.959 92.56 358.799 93.16C358.639 93.7467 358.393 94.2733 358.059 94.74C357.726 95.2067 357.306 95.5867 356.799 95.88C356.293 96.16 355.699 96.3 355.019 96.3C354.033 96.3 353.193 95.9333 352.499 95.2V96.28C352.499 96.6667 352.499 97.0867 352.499 97.54C352.513 98.0067 352.526 98.4533 352.539 98.88C352.539 99.1867 352.686 99.3667 352.979 99.42L353.679 99.56C353.973 99.6133 354.119 99.7667 354.119 100.02C354.119 100.273 353.953 100.4 353.619 100.4H349.579C349.246 100.4 349.079 100.273 349.079 100.02C349.079 99.7667 349.226 99.6067 349.519 99.54L349.979 99.44C350.273 99.3733 350.419 99.1933 350.419 98.9C350.433 98.4733 350.439 98.0267 350.439 97.56C350.453 97.1067 350.459 96.68 350.459 96.28V90.94C350.459 90.6733 350.459 90.4333 350.459 90.22C350.459 90.0067 350.453 89.82 350.439 89.66C350.426 89.5533 350.419 89.4533 350.419 89.36C350.419 89.2667 350.419 89.1667 350.419 89.06C350.393 88.7533 350.233 88.58 349.939 88.54L349.459 88.48C349.153 88.44 348.999 88.3 348.999 88.06C348.999 87.8333 349.133 87.6667 349.399 87.56L351.699 86.66C351.819 86.6067 351.933 86.58 352.039 86.58C352.093 86.58 352.146 86.5933 352.199 86.62ZM352.559 88.64V94.22C353.199 94.74 353.819 95 354.419 95C355.086 95 355.639 94.7133 356.079 94.14C356.533 93.5667 356.759 92.6733 356.759 91.46C356.759 90.2333 356.559 89.32 356.159 88.72C355.773 88.1067 355.253 87.8 354.599 87.8C353.999 87.8 353.319 88.08 352.559 88.64ZM369.785 94.56C369.798 94.84 369.951 95.0133 370.245 95.08L370.585 95.14C370.878 95.2067 371.025 95.3667 371.025 95.62C371.025 95.8733 370.858 96 370.525 96H366.825C366.491 96 366.325 95.8733 366.325 95.62C366.325 95.38 366.478 95.2267 366.785 95.16L367.205 95.08C367.498 95.0133 367.651 94.84 367.665 94.56V90.2C367.665 89.4 367.565 88.8333 367.365 88.5C367.165 88.1533 366.811 87.98 366.305 87.98C365.891 87.98 365.491 88.08 365.105 88.28C364.718 88.4667 364.311 88.7733 363.885 89.2V94.54C363.885 94.8467 364.031 95.0267 364.325 95.08L364.665 95.14C364.958 95.2067 365.105 95.3667 365.105 95.62C365.105 95.8733 364.938 96 364.605 96H360.925C360.591 96 360.425 95.8733 360.425 95.62C360.425 95.38 360.578 95.2267 360.885 95.16L361.285 95.08C361.578 95.0133 361.731 94.84 361.745 94.56V84.34C361.745 84.0333 361.591 83.86 361.285 83.82L360.685 83.74C360.378 83.7 360.225 83.56 360.225 83.32C360.225 83.08 360.365 82.92 360.645 82.84L363.265 82.16C363.331 82.1333 363.385 82.12 363.425 82.12C363.478 82.12 363.531 82.12 363.585 82.12C363.678 82.12 363.738 82.1333 363.765 82.16C363.845 82.2133 363.885 82.3733 363.885 82.64L363.825 84.96V88.24C364.345 87.6533 364.865 87.22 365.385 86.94C365.905 86.66 366.491 86.52 367.145 86.52C368.025 86.52 368.685 86.7933 369.125 87.34C369.565 87.8733 369.785 88.7533 369.785 89.98V94.56ZM380.803 86.86C381.137 86.86 381.303 86.9933 381.303 87.26C381.303 87.5267 381.15 87.6933 380.843 87.76L380.543 87.82C380.277 87.86 380.097 88.0067 380.003 88.26L377.143 96.08C376.997 96.4933 376.817 96.9533 376.603 97.46C376.403 97.98 376.157 98.46 375.863 98.9C375.57 99.3533 375.223 99.7333 374.823 100.04C374.423 100.347 373.957 100.5 373.423 100.5C372.917 100.5 372.477 100.38 372.103 100.14C371.743 99.9133 371.563 99.5933 371.563 99.18C371.657 98.8733 371.817 98.6533 372.043 98.52C372.27 98.4 372.53 98.34 372.823 98.34C373.063 98.34 373.29 98.38 373.503 98.46C373.73 98.54 373.977 98.7133 374.243 98.98C374.283 99.02 374.337 99.04 374.403 99.04C374.55 99.04 374.71 98.9333 374.883 98.72C375.057 98.52 375.223 98.28 375.383 98C375.543 97.7333 375.683 97.4667 375.803 97.2C375.937 96.9333 376.023 96.7467 376.063 96.64L372.643 88.24C372.55 88.0133 372.377 87.8733 372.123 87.82L371.843 87.76C371.55 87.7067 371.403 87.54 371.403 87.26C371.403 86.9933 371.57 86.86 371.903 86.86H375.843C376.177 86.86 376.343 86.9933 376.343 87.26C376.343 87.5533 376.19 87.72 375.883 87.76L375.403 87.84C375.043 87.9067 374.923 88.1067 375.043 88.44L377.043 93.86L378.923 88.42C379.043 88.0867 378.923 87.8867 378.563 87.82L378.123 87.76C377.817 87.72 377.663 87.5533 377.663 87.26C377.663 86.9933 377.83 86.86 378.163 86.86H380.803Z" fill="black"/>
</g>
<defs>
<clipPath id="clip0_1_9">
<rect width="650" height="108" fill="white"/>
</clipPath>
</defs>
</svg>
