<svg width="650" height="108" viewBox="0 0 650 108" fill="none" xmlns="http://www.w3.org/2000/svg">
<g clip-path="url(#clip0_1_9)">
<path d="M81.0938 25H83.0938L98.7188 66.375C99.1771 67.5 99.7188 68.25 100.344 68.625C101.01 69 101.969 69.1875 103.219 69.1875V72H87.9062V69.1875C88.1146 69.1875 88.4688 69.1875 88.9688 69.1875C89.5104 69.1458 90.0312 69.0833 90.5312 69C91.0729 68.875 91.5521 68.6875 91.9688 68.4375C92.3854 68.1875 92.5938 67.8333 92.5938 67.375C92.5938 67.1667 92.5729 66.9792 92.5312 66.8125C92.4896 66.6458 92.4271 66.4583 92.3438 66.25L88.8438 56.8125H72.9062C72.6562 57.6042 72.3854 58.4375 72.0938 59.3125C71.8021 60.1875 71.5312 61.0417 71.2812 61.875C71.0312 62.6667 70.8229 63.3958 70.6562 64.0625C70.4896 64.6875 70.4062 65.1667 70.4062 65.5C70.4062 66.8333 70.6979 67.7917 71.2812 68.375C71.8646 68.9167 73.0729 69.1875 74.9062 69.1875V72H61.7812V69.1875C63.1979 69.1875 64.2812 68.8333 65.0312 68.125C65.8229 67.375 66.5312 66.0625 67.1562 64.1875L81.0938 25ZM80.8438 34.875L73.9688 53.8125H87.8438L80.8438 34.875ZM114.844 47.125H115.031C115.823 45.3333 117.115 43.8958 118.906 42.8125C120.74 41.7292 122.656 41.1875 124.656 41.1875C127.448 41.1875 129.698 42.1458 131.406 44.0625C133.156 45.9792 134.031 49.0625 134.031 53.3125V66.125C134.031 67.5 134.344 68.4375 134.969 68.9375C135.594 69.4375 136.302 69.6875 137.094 69.6875H137.844V72H124.531V69.625H125.719C126.427 69.625 127.094 69.4167 127.719 69C128.385 68.5417 128.719 67.6458 128.719 66.3125V53.25C128.719 50.3333 128.156 48.2708 127.031 47.0625C125.948 45.8125 124.656 45.1875 123.156 45.1875C122.031 45.1875 120.948 45.5 119.906 46.125C118.906 46.75 118.031 47.5833 117.281 48.625C116.531 49.6667 115.927 50.875 115.469 52.25C115.052 53.625 114.844 55.0417 114.844 56.5V66.125C114.844 67.5 115.156 68.4375 115.781 68.9375C116.406 69.4375 117.094 69.6875 117.844 69.6875H119.031V72H105.344V69.625H106.469C107.26 69.625 107.969 69.3958 108.594 68.9375C109.219 68.4375 109.531 67.5 109.531 66.125V48.0625C109.531 46.8542 109.427 45.9375 109.219 45.3125C109.052 44.6875 108.448 44.3333 107.406 44.25L105.219 44.0625V41.6875L114.844 40.625V47.125ZM160.844 69.6875C159.635 71.2292 157.99 72.2083 155.906 72.625C154.781 72.875 152.76 73 149.844 73C147.344 73 145.365 72.3542 143.906 71.0625C142.49 69.7708 141.781 67.875 141.781 65.375C141.781 61.1667 144.156 58.1042 148.906 56.1875C149.906 55.7708 151.365 55.3542 153.281 54.9375C155.24 54.5208 157.677 54.0833 160.594 53.625V52.75C160.594 52.3333 160.573 51.8333 160.531 51.25C160.531 50.6667 160.51 49.9583 160.469 49.125C160.344 45.8333 158.177 44.1875 153.969 44.1875C152.385 44.1875 151.031 44.3542 149.906 44.6875C148.781 45.0208 148.219 45.5625 148.219 46.3125C148.219 46.7292 148.323 47.0833 148.531 47.375C149.073 48.2917 149.344 49.1875 149.344 50.0625C149.344 52.1042 148.198 53.125 145.906 53.125C143.948 53.125 142.969 51.8125 142.969 49.1875C142.969 46.4792 144.427 44.4167 147.344 43C150.135 41.6667 152.635 41 154.844 41C155.635 41 156.552 41.1042 157.594 41.3125C158.635 41.5208 159.656 41.8542 160.656 42.3125C161.656 42.7292 162.552 43.25 163.344 43.875C164.135 44.5 164.719 45.2083 165.094 46C165.427 46.75 165.635 47.75 165.719 49C165.802 50.25 165.844 51.6042 165.844 53.0625C165.844 55.9375 165.802 58.5 165.719 60.75C165.635 62.9583 165.594 64.4167 165.594 65.125C165.594 66.4167 165.76 67.3958 166.094 68.0625C166.469 68.7292 167.198 69.0625 168.281 69.0625C169.656 69.0625 170.49 69.125 170.781 69.25C171.073 69.375 171.219 69.5625 171.219 69.8125C171.219 70.1875 171.073 70.5417 170.781 70.875C170.531 71.2083 170.198 71.5208 169.781 71.8125C169.365 72.0625 168.885 72.2708 168.344 72.4375C167.844 72.6042 167.365 72.6875 166.906 72.6875C165.031 72.6875 163.656 72.4375 162.781 71.9375C161.948 71.3958 161.302 70.6458 160.844 69.6875ZM160.594 56.5625C156.177 57.1458 152.844 58.0625 150.594 59.3125C148.385 60.5208 147.281 62.3542 147.281 64.8125C147.281 66.2708 147.781 67.4792 148.781 68.4375C149.781 69.3958 150.969 69.875 152.344 69.875C155.76 69.875 158.031 69.0833 159.156 67.5C160.115 66.1667 160.594 63.3333 160.594 59V56.5625ZM194.156 51.25H192.156C190.865 46.2083 187.823 43.6875 183.031 43.6875C181.573 43.6875 180.281 44.1042 179.156 44.9375C178.031 45.7708 177.469 46.9792 177.469 48.5625C177.469 49.7708 177.885 50.7292 178.719 51.4375C179.594 52.1458 181.219 52.7708 183.594 53.3125L187.156 54.1875C188.573 54.5208 189.844 54.8958 190.969 55.3125C192.094 55.7292 193.031 56.2708 193.781 56.9375C194.573 57.6042 195.156 58.4375 195.531 59.4375C195.948 60.3958 196.156 61.625 196.156 63.125C196.156 64.7083 195.865 66.1042 195.281 67.3125C194.698 68.5208 193.927 69.5625 192.969 70.4375C192.052 71.2708 190.99 71.8958 189.781 72.3125C188.573 72.7708 187.344 73 186.094 73C184.469 73 182.969 72.7083 181.594 72.125C180.219 71.5833 178.844 70.75 177.469 69.625L175.719 72.5H173.656V61.125L175.719 61.375C176.01 62.7083 176.51 63.9167 177.219 65C177.969 66.0417 178.823 66.9375 179.781 67.6875C180.781 68.4375 181.865 69.0208 183.031 69.4375C184.198 69.8125 185.385 70 186.594 70C187.344 70 188.073 69.875 188.781 69.625C189.49 69.375 190.094 69.0417 190.594 68.625C191.135 68.2083 191.573 67.7292 191.906 67.1875C192.24 66.6458 192.406 66.0625 192.406 65.4375C192.406 63.4375 191.365 62.0208 189.281 61.1875C188.323 60.8125 187.281 60.4583 186.156 60.125C185.031 59.75 183.969 59.4375 182.969 59.1875C181.969 58.8958 181.115 58.6667 180.406 58.5C179.698 58.3333 179.323 58.25 179.281 58.25C177.198 57.7083 175.781 56.7292 175.031 55.3125C174.281 53.8542 173.906 52.1667 173.906 50.25C173.906 48.9167 174.156 47.6667 174.656 46.5C175.198 45.3333 175.885 44.3333 176.719 43.5C177.594 42.625 178.573 41.9375 179.656 41.4375C180.74 40.9375 181.865 40.6875 183.031 40.6875C184.365 40.6875 185.656 40.9375 186.906 41.4375C188.198 41.8958 189.427 42.6458 190.594 43.6875L192.406 41.1875H194.156V51.25ZM210.531 30.3125V41.9375H219.469V45.6875H210.594V63.9375C210.594 67.2708 211.906 68.9375 214.531 68.9375C216.115 68.9375 217.323 68.2292 218.156 66.8125C219.031 65.3958 219.469 63.5833 219.469 61.375H221.969V61.875C221.969 65.5417 221.177 68.2292 219.594 69.9375C218.01 71.6458 215.635 72.5 212.469 72.5C210.344 72.5 208.615 71.8542 207.281 70.5625C205.948 69.2292 205.281 67.5625 205.281 65.5625V45.6875H199.969V41.9375H200.469C201.719 41.9375 202.74 41.875 203.531 41.75C204.323 41.625 204.927 41.3333 205.344 40.875C205.802 40.4167 206.115 39.7708 206.281 38.9375C206.448 38.0625 206.531 36.875 206.531 35.375C206.531 35 206.531 34.5833 206.531 34.125C206.531 33.6667 206.531 33.2083 206.531 32.75C206.573 32.25 206.594 31.7917 206.594 31.375C206.635 30.9583 206.698 30.6042 206.781 30.3125H210.531ZM244.219 69.6875C243.01 71.2292 241.365 72.2083 239.281 72.625C238.156 72.875 236.135 73 233.219 73C230.719 73 228.74 72.3542 227.281 71.0625C225.865 69.7708 225.156 67.875 225.156 65.375C225.156 61.1667 227.531 58.1042 232.281 56.1875C233.281 55.7708 234.74 55.3542 236.656 54.9375C238.615 54.5208 241.052 54.0833 243.969 53.625V52.75C243.969 52.3333 243.948 51.8333 243.906 51.25C243.906 50.6667 243.885 49.9583 243.844 49.125C243.719 45.8333 241.552 44.1875 237.344 44.1875C235.76 44.1875 234.406 44.3542 233.281 44.6875C232.156 45.0208 231.594 45.5625 231.594 46.3125C231.594 46.7292 231.698 47.0833 231.906 47.375C232.448 48.2917 232.719 49.1875 232.719 50.0625C232.719 52.1042 231.573 53.125 229.281 53.125C227.323 53.125 226.344 51.8125 226.344 49.1875C226.344 46.4792 227.802 44.4167 230.719 43C233.51 41.6667 236.01 41 238.219 41C239.01 41 239.927 41.1042 240.969 41.3125C242.01 41.5208 243.031 41.8542 244.031 42.3125C245.031 42.7292 245.927 43.25 246.719 43.875C247.51 44.5 248.094 45.2083 248.469 46C248.802 46.75 249.01 47.75 249.094 49C249.177 50.25 249.219 51.6042 249.219 53.0625C249.219 55.9375 249.177 58.5 249.094 60.75C249.01 62.9583 248.969 64.4167 248.969 65.125C248.969 66.4167 249.135 67.3958 249.469 68.0625C249.844 68.7292 250.573 69.0625 251.656 69.0625C253.031 69.0625 253.865 69.125 254.156 69.25C254.448 69.375 254.594 69.5625 254.594 69.8125C254.594 70.1875 254.448 70.5417 254.156 70.875C253.906 71.2083 253.573 71.5208 253.156 71.8125C252.74 72.0625 252.26 72.2708 251.719 72.4375C251.219 72.6042 250.74 72.6875 250.281 72.6875C248.406 72.6875 247.031 72.4375 246.156 71.9375C245.323 71.3958 244.677 70.6458 244.219 69.6875ZM243.969 56.5625C239.552 57.1458 236.219 58.0625 233.969 59.3125C231.76 60.5208 230.656 62.3542 230.656 64.8125C230.656 66.2708 231.156 67.4792 232.156 68.4375C233.156 69.3958 234.344 69.875 235.719 69.875C239.135 69.875 241.406 69.0833 242.531 67.5C243.49 66.1667 243.969 63.3333 243.969 59V56.5625ZM277.531 51.25H275.531C274.24 46.2083 271.198 43.6875 266.406 43.6875C264.948 43.6875 263.656 44.1042 262.531 44.9375C261.406 45.7708 260.844 46.9792 260.844 48.5625C260.844 49.7708 261.26 50.7292 262.094 51.4375C262.969 52.1458 264.594 52.7708 266.969 53.3125L270.531 54.1875C271.948 54.5208 273.219 54.8958 274.344 55.3125C275.469 55.7292 276.406 56.2708 277.156 56.9375C277.948 57.6042 278.531 58.4375 278.906 59.4375C279.323 60.3958 279.531 61.625 279.531 63.125C279.531 64.7083 279.24 66.1042 278.656 67.3125C278.073 68.5208 277.302 69.5625 276.344 70.4375C275.427 71.2708 274.365 71.8958 273.156 72.3125C271.948 72.7708 270.719 73 269.469 73C267.844 73 266.344 72.7083 264.969 72.125C263.594 71.5833 262.219 70.75 260.844 69.625L259.094 72.5H257.031V61.125L259.094 61.375C259.385 62.7083 259.885 63.9167 260.594 65C261.344 66.0417 262.198 66.9375 263.156 67.6875C264.156 68.4375 265.24 69.0208 266.406 69.4375C267.573 69.8125 268.76 70 269.969 70C270.719 70 271.448 69.875 272.156 69.625C272.865 69.375 273.469 69.0417 273.969 68.625C274.51 68.2083 274.948 67.7292 275.281 67.1875C275.615 66.6458 275.781 66.0625 275.781 65.4375C275.781 63.4375 274.74 62.0208 272.656 61.1875C271.698 60.8125 270.656 60.4583 269.531 60.125C268.406 59.75 267.344 59.4375 266.344 59.1875C265.344 58.8958 264.49 58.6667 263.781 58.5C263.073 58.3333 262.698 58.25 262.656 58.25C260.573 57.7083 259.156 56.7292 258.406 55.3125C257.656 53.8542 257.281 52.1667 257.281 50.25C257.281 48.9167 257.531 47.6667 258.031 46.5C258.573 45.3333 259.26 44.3333 260.094 43.5C260.969 42.625 261.948 41.9375 263.031 41.4375C264.115 40.9375 265.24 40.6875 266.406 40.6875C267.74 40.6875 269.031 40.9375 270.281 41.4375C271.573 41.8958 272.802 42.6458 273.969 43.6875L275.781 41.1875H277.531V51.25ZM294.219 31.0625C294.219 31.9792 293.865 32.8125 293.156 33.5625C292.448 34.2708 291.615 34.625 290.656 34.625C289.698 34.625 288.865 34.2708 288.156 33.5625C287.49 32.8125 287.156 31.9792 287.156 31.0625C287.156 30.1458 287.49 29.3333 288.156 28.625C288.865 27.875 289.698 27.5 290.656 27.5C291.615 27.5 292.448 27.875 293.156 28.625C293.865 29.3333 294.219 30.1458 294.219 31.0625ZM295.219 66.125C295.219 67.5 295.531 68.4375 296.156 68.9375C296.823 69.4375 297.531 69.6875 298.281 69.6875H299.406V72H285.719V69.625H286.906C287.656 69.625 288.344 69.3958 288.969 68.9375C289.594 68.4375 289.906 67.5 289.906 66.125V48.125C289.906 46.9167 289.802 46 289.594 45.375C289.427 44.75 288.823 44.3958 287.781 44.3125L284.844 44.0625V41.6875L295.219 40.6875V66.125ZM323.031 69.6875C321.823 71.2292 320.177 72.2083 318.094 72.625C316.969 72.875 314.948 73 312.031 73C309.531 73 307.552 72.3542 306.094 71.0625C304.677 69.7708 303.969 67.875 303.969 65.375C303.969 61.1667 306.344 58.1042 311.094 56.1875C312.094 55.7708 313.552 55.3542 315.469 54.9375C317.427 54.5208 319.865 54.0833 322.781 53.625V52.75C322.781 52.3333 322.76 51.8333 322.719 51.25C322.719 50.6667 322.698 49.9583 322.656 49.125C322.531 45.8333 320.365 44.1875 316.156 44.1875C314.573 44.1875 313.219 44.3542 312.094 44.6875C310.969 45.0208 310.406 45.5625 310.406 46.3125C310.406 46.7292 310.51 47.0833 310.719 47.375C311.26 48.2917 311.531 49.1875 311.531 50.0625C311.531 52.1042 310.385 53.125 308.094 53.125C306.135 53.125 305.156 51.8125 305.156 49.1875C305.156 46.4792 306.615 44.4167 309.531 43C312.323 41.6667 314.823 41 317.031 41C317.823 41 318.74 41.1042 319.781 41.3125C320.823 41.5208 321.844 41.8542 322.844 42.3125C323.844 42.7292 324.74 43.25 325.531 43.875C326.323 44.5 326.906 45.2083 327.281 46C327.615 46.75 327.823 47.75 327.906 49C327.99 50.25 328.031 51.6042 328.031 53.0625C328.031 55.9375 327.99 58.5 327.906 60.75C327.823 62.9583 327.781 64.4167 327.781 65.125C327.781 66.4167 327.948 67.3958 328.281 68.0625C328.656 68.7292 329.385 69.0625 330.469 69.0625C331.844 69.0625 332.677 69.125 332.969 69.25C333.26 69.375 333.406 69.5625 333.406 69.8125C333.406 70.1875 333.26 70.5417 332.969 70.875C332.719 71.2083 332.385 71.5208 331.969 71.8125C331.552 72.0625 331.073 72.2708 330.531 72.4375C330.031 72.6042 329.552 72.6875 329.094 72.6875C327.219 72.6875 325.844 72.4375 324.969 71.9375C324.135 71.3958 323.49 70.6458 323.031 69.6875ZM322.781 56.5625C318.365 57.1458 315.031 58.0625 312.781 59.3125C310.573 60.5208 309.469 62.3542 309.469 64.8125C309.469 66.2708 309.969 67.4792 310.969 68.4375C311.969 69.3958 313.156 69.875 314.531 69.875C317.948 69.875 320.219 69.0833 321.344 67.5C322.302 66.1667 322.781 63.3333 322.781 59V56.5625ZM394.844 25.5C399.802 25.5 403.552 26.4375 406.094 28.3125C408.677 30.1875 409.969 33.2083 409.969 37.375C409.969 39 409.781 40.4167 409.406 41.625C409.031 42.8333 408.49 43.875 407.781 44.75C407.115 45.625 406.281 46.3542 405.281 46.9375C404.323 47.4792 403.26 47.9167 402.094 48.25C404.969 49 407.177 50.3542 408.719 52.3125C410.26 54.2708 411.031 56.625 411.031 59.375C411.031 62.2083 410.531 64.4583 409.531 66.125C408.573 67.7917 407.219 69.0625 405.469 69.9375C403.76 70.8125 401.719 71.375 399.344 71.625C396.969 71.875 394.385 72 391.594 72H374.844V69.1875H377.156C377.906 69.1875 378.594 68.9583 379.219 68.5C379.844 68 380.156 67.0417 380.156 65.625V31.875C380.156 30.4583 379.844 29.5208 379.219 29.0625C378.594 28.5625 377.906 28.3125 377.156 28.3125H374.844V25.5H394.844ZM386.219 65.625C386.219 67.0417 386.51 68 387.094 68.5C387.719 68.9583 388.448 69.1875 389.281 69.1875H391.594C394.26 69.1875 396.448 69 398.156 68.625C399.906 68.25 401.281 67.6875 402.281 66.9375C403.281 66.1458 403.969 65.125 404.344 63.875C404.76 62.625 404.969 61.125 404.969 59.375C404.969 57.25 404.635 55.5417 403.969 54.25C403.344 52.9167 402.427 51.875 401.219 51.125C400.052 50.375 398.635 49.875 396.969 49.625C395.302 49.375 393.448 49.25 391.406 49.25H386.219V65.625ZM392.281 46.25C396.448 46.25 399.427 45.5208 401.219 44.0625C403.01 42.6042 403.906 40.3542 403.906 37.3125C403.906 35.6458 403.573 34.2292 402.906 33.0625C402.281 31.8958 401.385 30.9792 400.219 30.3125C399.094 29.6042 397.76 29.1042 396.219 28.8125C394.677 28.4792 393.031 28.3125 391.281 28.3125H389.281C388.531 28.3125 387.823 28.5625 387.156 29.0625C386.531 29.5208 386.219 30.4583 386.219 31.875V46.25H392.281ZM440.344 64.375C439.26 67.625 437.698 69.875 435.656 71.125C433.656 72.375 431.281 73 428.531 73C426.74 73 425.094 72.625 423.594 71.875C422.094 71.0833 420.802 70.0208 419.719 68.6875C418.635 67.3542 417.781 65.7917 417.156 64C416.573 62.1667 416.281 60.2083 416.281 58.125C416.281 55.4583 416.573 53.0625 417.156 50.9375C417.781 48.7708 418.656 46.9375 419.781 45.4375C420.948 43.8958 422.365 42.7292 424.031 41.9375C425.698 41.1042 427.594 40.6875 429.719 40.6875C431.51 40.6875 433.156 41.1875 434.656 42.1875C436.156 43.1875 437.427 44.4792 438.469 46.0625C439.552 47.6042 440.385 49.3333 440.969 51.25C441.552 53.1667 441.844 55.0208 441.844 56.8125V57.625H421.844C422.01 61.375 422.844 64.2917 424.344 66.375C425.885 68.4583 427.969 69.5 430.594 69.5C431.344 69.5 432.094 69.375 432.844 69.125C433.594 68.8333 434.302 68.4375 434.969 67.9375C435.677 67.3958 436.302 66.75 436.844 66C437.427 65.25 437.885 64.3958 438.219 63.4375L440.344 64.375ZM436.281 51.9375C436.281 49.5208 435.677 47.5417 434.469 46C433.302 44.4583 431.719 43.6875 429.719 43.6875C427.552 43.6875 425.781 44.6458 424.406 46.5625C423.031 48.4792 422.219 51.0625 421.969 54.3125H433.219C433.969 54.3125 434.552 54.2917 434.969 54.25C435.385 54.1667 435.677 54.0417 435.844 53.875C436.052 53.7083 436.177 53.4792 436.219 53.1875C436.26 52.8542 436.281 52.4375 436.281 51.9375ZM456.156 30.3125V41.9375H465.094V45.6875H456.219V63.9375C456.219 67.2708 457.531 68.9375 460.156 68.9375C461.74 68.9375 462.948 68.2292 463.781 66.8125C464.656 65.3958 465.094 63.5833 465.094 61.375H467.594V61.875C467.594 65.5417 466.802 68.2292 465.219 69.9375C463.635 71.6458 461.26 72.5 458.094 72.5C455.969 72.5 454.24 71.8542 452.906 70.5625C451.573 69.2292 450.906 67.5625 450.906 65.5625V45.6875H445.594V41.9375H446.094C447.344 41.9375 448.365 41.875 449.156 41.75C449.948 41.625 450.552 41.3333 450.969 40.875C451.427 40.4167 451.74 39.7708 451.906 38.9375C452.073 38.0625 452.156 36.875 452.156 35.375C452.156 35 452.156 34.5833 452.156 34.125C452.156 33.6667 452.156 33.2083 452.156 32.75C452.198 32.25 452.219 31.7917 452.219 31.375C452.26 30.9583 452.323 30.6042 452.406 30.3125H456.156ZM478.969 56.75L488.281 47.8125C488.615 47.4792 488.906 47.1042 489.156 46.6875C489.448 46.2708 489.594 45.8542 489.594 45.4375C489.594 45.0625 489.406 44.75 489.031 44.5C488.698 44.2083 488.135 44.0625 487.344 44.0625H485.469V41.6875H498.906V44.0625H497.906C496.781 44.0625 495.844 44.3542 495.094 44.9375C494.385 45.5208 493.677 46.1667 492.969 46.875L486.781 52.8125L495.094 64.9375C495.427 65.4375 495.781 65.9792 496.156 66.5625C496.573 67.1042 496.969 67.6042 497.344 68.0625C497.76 68.5208 498.177 68.8958 498.594 69.1875C499.052 69.4792 499.49 69.625 499.906 69.625H501.469V72H488.031V69.625H489.344C489.885 69.625 490.302 69.5833 490.594 69.5C490.927 69.375 491.094 69.1042 491.094 68.6875C491.094 68.4375 490.99 68.2083 490.781 68C490.615 67.75 490.344 67.3333 489.969 66.75L482.781 56.3125L478.969 60.3125V66.125C478.969 67.5417 479.281 68.5 479.906 69C480.531 69.4583 481.219 69.6875 481.969 69.6875H483.094V72H469.906V69.625H470.594C471.385 69.625 472.094 69.3958 472.719 68.9375C473.344 68.4375 473.656 67.5 473.656 66.125V31.8125C473.656 30.6042 473.552 29.6875 473.344 29.0625C473.177 28.4375 472.552 28.0833 471.469 28L469.844 27.875V25.5L478.969 24.5V56.75ZM514.469 31.0625C514.469 31.9792 514.115 32.8125 513.406 33.5625C512.698 34.2708 511.865 34.625 510.906 34.625C509.948 34.625 509.115 34.2708 508.406 33.5625C507.74 32.8125 507.406 31.9792 507.406 31.0625C507.406 30.1458 507.74 29.3333 508.406 28.625C509.115 27.875 509.948 27.5 510.906 27.5C511.865 27.5 512.698 27.875 513.406 28.625C514.115 29.3333 514.469 30.1458 514.469 31.0625ZM515.469 66.125C515.469 67.5 515.781 68.4375 516.406 68.9375C517.073 69.4375 517.781 69.6875 518.531 69.6875H519.656V72H505.969V69.625H507.156C507.906 69.625 508.594 69.3958 509.219 68.9375C509.844 68.4375 510.156 67.5 510.156 66.125V48.125C510.156 46.9167 510.052 46 509.844 45.375C509.677 44.75 509.073 44.3958 508.031 44.3125L505.094 44.0625V41.6875L515.469 40.6875V66.125ZM532.656 47.125H532.844C533.635 45.3333 534.927 43.8958 536.719 42.8125C538.552 41.7292 540.469 41.1875 542.469 41.1875C545.26 41.1875 547.51 42.1458 549.219 44.0625C550.969 45.9792 551.844 49.0625 551.844 53.3125V66.125C551.844 67.5 552.156 68.4375 552.781 68.9375C553.406 69.4375 554.115 69.6875 554.906 69.6875H555.656V72H542.344V69.625H543.531C544.24 69.625 544.906 69.4167 545.531 69C546.198 68.5417 546.531 67.6458 546.531 66.3125V53.25C546.531 50.3333 545.969 48.2708 544.844 47.0625C543.76 45.8125 542.469 45.1875 540.969 45.1875C539.844 45.1875 538.76 45.5 537.719 46.125C536.719 46.75 535.844 47.5833 535.094 48.625C534.344 49.6667 533.74 50.875 533.281 52.25C532.865 53.625 532.656 55.0417 532.656 56.5V66.125C532.656 67.5 532.969 68.4375 533.594 68.9375C534.219 69.4375 534.906 69.6875 535.656 69.6875H536.844V72H523.156V69.625H524.281C525.073 69.625 525.781 69.3958 526.406 68.9375C527.031 68.4375 527.344 67.5 527.344 66.125V48.0625C527.344 46.8542 527.24 45.9375 527.031 45.3125C526.865 44.6875 526.26 44.3333 525.219 44.25L523.031 44.0625V41.6875L532.656 40.625V47.125ZM578.656 69.6875C577.448 71.2292 575.802 72.2083 573.719 72.625C572.594 72.875 570.573 73 567.656 73C565.156 73 563.177 72.3542 561.719 71.0625C560.302 69.7708 559.594 67.875 559.594 65.375C559.594 61.1667 561.969 58.1042 566.719 56.1875C567.719 55.7708 569.177 55.3542 571.094 54.9375C573.052 54.5208 575.49 54.0833 578.406 53.625V52.75C578.406 52.3333 578.385 51.8333 578.344 51.25C578.344 50.6667 578.323 49.9583 578.281 49.125C578.156 45.8333 575.99 44.1875 571.781 44.1875C570.198 44.1875 568.844 44.3542 567.719 44.6875C566.594 45.0208 566.031 45.5625 566.031 46.3125C566.031 46.7292 566.135 47.0833 566.344 47.375C566.885 48.2917 567.156 49.1875 567.156 50.0625C567.156 52.1042 566.01 53.125 563.719 53.125C561.76 53.125 560.781 51.8125 560.781 49.1875C560.781 46.4792 562.24 44.4167 565.156 43C567.948 41.6667 570.448 41 572.656 41C573.448 41 574.365 41.1042 575.406 41.3125C576.448 41.5208 577.469 41.8542 578.469 42.3125C579.469 42.7292 580.365 43.25 581.156 43.875C581.948 44.5 582.531 45.2083 582.906 46C583.24 46.75 583.448 47.75 583.531 49C583.615 50.25 583.656 51.6042 583.656 53.0625C583.656 55.9375 583.615 58.5 583.531 60.75C583.448 62.9583 583.406 64.4167 583.406 65.125C583.406 66.4167 583.573 67.3958 583.906 68.0625C584.281 68.7292 585.01 69.0625 586.094 69.0625C587.469 69.0625 588.302 69.125 588.594 69.25C588.885 69.375 589.031 69.5625 589.031 69.8125C589.031 70.1875 588.885 70.5417 588.594 70.875C588.344 71.2083 588.01 71.5208 587.594 71.8125C587.177 72.0625 586.698 72.2708 586.156 72.4375C585.656 72.6042 585.177 72.6875 584.719 72.6875C582.844 72.6875 581.469 72.4375 580.594 71.9375C579.76 71.3958 579.115 70.6458 578.656 69.6875ZM578.406 56.5625C573.99 57.1458 570.656 58.0625 568.406 59.3125C566.198 60.5208 565.094 62.3542 565.094 64.8125C565.094 66.2708 565.594 67.4792 566.594 68.4375C567.594 69.3958 568.781 69.875 570.156 69.875C573.573 69.875 575.844 69.0833 576.969 67.5C577.927 66.1667 578.406 63.3333 578.406 59V56.5625Z" fill="black"/>
<path d="M273.735 91.04H273.275V92.98C273.275 93.22 273.275 93.4667 273.275 93.72C273.288 93.96 273.295 94.2133 273.295 94.48C273.308 94.7733 273.468 94.94 273.775 94.98L274.595 95.06C274.915 95.1 275.075 95.2667 275.075 95.56C275.075 95.8533 274.908 96 274.575 96H269.755C269.422 96 269.255 95.8533 269.255 95.56C269.255 95.2667 269.415 95.1067 269.735 95.08L270.455 95C270.762 94.96 270.922 94.7867 270.935 94.48C270.935 94.16 270.935 93.84 270.935 93.52C270.948 93.1867 270.955 92.8533 270.955 92.52V86.8C270.955 86.4667 270.948 86.14 270.935 85.82C270.935 85.4867 270.935 85.1533 270.935 84.82C270.908 84.5133 270.748 84.34 270.455 84.3L269.735 84.22C269.415 84.18 269.255 84.02 269.255 83.74C269.255 83.4467 269.422 83.3 269.755 83.3H274.435C275.062 83.3 275.682 83.36 276.295 83.48C276.908 83.5867 277.455 83.7867 277.935 84.08C278.428 84.36 278.822 84.7467 279.115 85.24C279.422 85.72 279.575 86.3333 279.575 87.08C279.575 87.8933 279.395 88.56 279.035 89.08C278.675 89.5867 278.208 89.9867 277.635 90.28C277.075 90.5733 276.448 90.7733 275.755 90.88C275.075 90.9867 274.402 91.04 273.735 91.04ZM274.175 84.28H273.315C273.302 84.6933 273.288 85.1 273.275 85.5C273.275 85.9 273.275 86.3133 273.275 86.74V90.06H274.035C275.182 90.06 276.015 89.7867 276.535 89.24C277.055 88.6933 277.315 87.9867 277.315 87.12C277.315 86.2 277.062 85.5 276.555 85.02C276.062 84.5267 275.268 84.28 274.175 84.28ZM289.98 94.56C289.993 94.84 290.147 95.0133 290.44 95.08L290.78 95.14C291.073 95.2067 291.22 95.3667 291.22 95.62C291.22 95.8733 291.053 96 290.72 96H287.02C286.687 96 286.52 95.8733 286.52 95.62C286.52 95.38 286.673 95.2267 286.98 95.16L287.4 95.08C287.693 95.0133 287.847 94.84 287.86 94.56V90.2C287.86 89.4 287.76 88.8333 287.56 88.5C287.36 88.1533 287.007 87.98 286.5 87.98C286.087 87.98 285.687 88.08 285.3 88.28C284.913 88.4667 284.507 88.7733 284.08 89.2V94.54C284.08 94.8467 284.227 95.0267 284.52 95.08L284.86 95.14C285.153 95.2067 285.3 95.3667 285.3 95.62C285.3 95.8733 285.133 96 284.8 96H281.12C280.787 96 280.62 95.8733 280.62 95.62C280.62 95.38 280.773 95.2267 281.08 95.16L281.48 95.08C281.773 95.0133 281.927 94.84 281.94 94.56V84.34C281.94 84.0333 281.787 83.86 281.48 83.82L280.88 83.74C280.573 83.7 280.42 83.56 280.42 83.32C280.42 83.08 280.56 82.92 280.84 82.84L283.46 82.16C283.527 82.1333 283.58 82.12 283.62 82.12C283.673 82.12 283.727 82.12 283.78 82.12C283.873 82.12 283.933 82.1333 283.96 82.16C284.04 82.2133 284.08 82.3733 284.08 82.64L284.02 84.96V88.24C284.54 87.6533 285.06 87.22 285.58 86.94C286.1 86.66 286.687 86.52 287.34 86.52C288.22 86.52 288.88 86.7933 289.32 87.34C289.76 87.8733 289.98 88.7533 289.98 89.98V94.56ZM297.079 86.52C297.772 86.52 298.405 86.6533 298.979 86.92C299.552 87.1733 300.039 87.5267 300.439 87.98C300.852 88.42 301.165 88.94 301.379 89.54C301.605 90.1267 301.719 90.76 301.719 91.44C301.719 92.1333 301.605 92.78 301.379 93.38C301.165 93.9667 300.859 94.48 300.459 94.92C300.059 95.3467 299.572 95.6867 298.999 95.94C298.425 96.18 297.785 96.3 297.079 96.3C296.372 96.3 295.732 96.18 295.159 95.94C294.585 95.6867 294.099 95.3467 293.699 94.92C293.299 94.48 292.985 93.9667 292.759 93.38C292.545 92.78 292.439 92.1333 292.439 91.44C292.439 90.76 292.545 90.12 292.759 89.52C292.985 88.92 293.299 88.4 293.699 87.96C294.112 87.52 294.599 87.1733 295.159 86.92C295.732 86.6533 296.372 86.52 297.079 86.52ZM297.079 87.42C295.545 87.42 294.779 88.7533 294.779 91.42C294.779 94.06 295.545 95.38 297.079 95.38C298.612 95.38 299.379 94.06 299.379 91.42C299.379 88.7533 298.612 87.42 297.079 87.42ZM308.061 94.68C308.208 94.6 308.335 94.56 308.441 94.56C308.548 94.56 308.641 94.6067 308.721 94.7C308.895 94.9133 308.881 95.1267 308.681 95.34C308.428 95.6067 308.115 95.82 307.741 95.98C307.381 96.1267 306.948 96.2 306.441 96.2C305.708 96.2 305.128 96.02 304.701 95.66C304.288 95.2867 304.081 94.7067 304.081 93.92C304.081 93.7467 304.081 93.5933 304.081 93.46C304.081 93.3133 304.088 93.1733 304.101 93.04V88.48C304.101 88.1467 303.935 87.98 303.601 87.98H303.181C302.848 87.98 302.681 87.82 302.681 87.5C302.681 87.1933 302.835 87.02 303.141 86.98L303.841 86.9C304.121 86.86 304.288 86.7 304.341 86.42L304.701 84.62C304.755 84.3267 304.935 84.18 305.241 84.18H305.801C306.121 84.18 306.281 84.3467 306.281 84.68L306.241 86.36C306.241 86.6933 306.408 86.86 306.741 86.86H308.121C308.455 86.86 308.621 87.0267 308.621 87.36V87.48C308.621 87.8133 308.455 87.98 308.121 87.98H306.721C306.388 87.98 306.221 88.1467 306.221 88.48V93.54C306.221 94.0333 306.315 94.3867 306.501 94.6C306.701 94.8133 306.955 94.92 307.261 94.92C307.368 94.92 307.488 94.9067 307.621 94.88C307.768 94.84 307.915 94.7733 308.061 94.68ZM314.344 86.52C315.038 86.52 315.671 86.6533 316.244 86.92C316.818 87.1733 317.304 87.5267 317.704 87.98C318.118 88.42 318.431 88.94 318.644 89.54C318.871 90.1267 318.984 90.76 318.984 91.44C318.984 92.1333 318.871 92.78 318.644 93.38C318.431 93.9667 318.124 94.48 317.724 94.92C317.324 95.3467 316.838 95.6867 316.264 95.94C315.691 96.18 315.051 96.3 314.344 96.3C313.638 96.3 312.998 96.18 312.424 95.94C311.851 95.6867 311.364 95.3467 310.964 94.92C310.564 94.48 310.251 93.9667 310.024 93.38C309.811 92.78 309.704 92.1333 309.704 91.44C309.704 90.76 309.811 90.12 310.024 89.52C310.251 88.92 310.564 88.4 310.964 87.96C311.378 87.52 311.864 87.1733 312.424 86.92C312.998 86.6533 313.638 86.52 314.344 86.52ZM314.344 87.42C312.811 87.42 312.044 88.7533 312.044 91.42C312.044 94.06 312.811 95.38 314.344 95.38C315.878 95.38 316.644 94.06 316.644 91.42C316.644 88.7533 315.878 87.42 314.344 87.42ZM329.527 87.12V87.54C329.527 87.8733 329.36 88.04 329.027 88.04H327.667C327.96 88.4933 328.107 89.0333 328.107 89.66C328.107 90.1933 328.007 90.66 327.807 91.06C327.607 91.4467 327.34 91.7733 327.007 92.04C326.674 92.2933 326.28 92.4867 325.827 92.62C325.387 92.74 324.927 92.8 324.447 92.8C323.914 92.8 323.44 92.7333 323.027 92.6C322.934 92.7467 322.86 92.8867 322.807 93.02C322.754 93.14 322.727 93.28 322.727 93.44C322.727 93.72 322.82 93.9333 323.007 94.08C323.207 94.2133 323.534 94.28 323.987 94.28H326.027C327.24 94.28 328.107 94.4867 328.627 94.9C329.16 95.3 329.427 95.8667 329.427 96.6C329.427 97.24 329.254 97.7733 328.907 98.2C328.56 98.64 328.127 98.9867 327.607 99.24C327.1 99.4933 326.54 99.6733 325.927 99.78C325.327 99.8867 324.774 99.94 324.267 99.94C322.854 99.94 321.847 99.7467 321.247 99.36C320.62 99.0133 320.307 98.52 320.307 97.88C320.307 97.4933 320.447 97.1333 320.727 96.8C321.007 96.4667 321.454 96.1467 322.067 95.84C321.694 95.6533 321.427 95.4267 321.267 95.16C321.107 94.88 321.027 94.5867 321.027 94.28C321.027 93.8933 321.14 93.5467 321.367 93.24C321.594 92.9333 321.92 92.6267 322.347 92.32C321.867 92.0533 321.494 91.7 321.227 91.26C320.96 90.8067 320.827 90.2733 320.827 89.66C320.827 89.14 320.927 88.6867 321.127 88.3C321.327 87.9 321.594 87.5733 321.927 87.32C322.26 87.0533 322.647 86.8533 323.087 86.72C323.527 86.5867 323.987 86.52 324.467 86.52C325.48 86.52 326.32 86.7733 326.987 87.28L328.867 86.66C328.934 86.6333 328.994 86.6133 329.047 86.6C329.1 86.5867 329.154 86.58 329.207 86.58C329.354 86.58 329.44 86.64 329.467 86.76C329.507 86.88 329.527 87 329.527 87.12ZM324.427 91.98C324.987 91.98 325.414 91.7733 325.707 91.36C326.014 90.9333 326.167 90.36 326.167 89.64C326.167 88.9333 326.02 88.3733 325.727 87.96C325.434 87.5333 325.014 87.32 324.467 87.32C323.907 87.32 323.48 87.5333 323.187 87.96C322.907 88.3867 322.767 88.9533 322.767 89.66C322.767 90.38 322.907 90.9467 323.187 91.36C323.467 91.7733 323.88 91.98 324.427 91.98ZM325.867 96.16H323.767C323.554 96.16 323.36 96.1467 323.187 96.12C323.014 96.1067 322.854 96.0867 322.707 96.06C322.387 96.5 322.227 96.9467 322.227 97.4C322.227 98 322.434 98.42 322.847 98.66C323.26 98.9 323.807 99.02 324.487 99.02C325.5 99.02 326.274 98.8467 326.807 98.5C327.34 98.1667 327.607 97.7667 327.607 97.3C327.607 96.98 327.48 96.7133 327.227 96.5C327.094 96.3933 326.92 96.3067 326.707 96.24C326.494 96.1867 326.214 96.16 325.867 96.16ZM333.762 86.62C333.816 86.66 333.856 86.7133 333.882 86.78C333.909 86.8467 333.929 86.9533 333.942 87.1L334.082 88.76C334.442 88.0533 334.856 87.5067 335.322 87.12C335.802 86.72 336.289 86.52 336.782 86.52C337.049 86.52 337.322 86.6 337.602 86.76C337.882 86.92 338.062 87.1933 338.142 87.58C338.142 87.9533 338.029 88.2533 337.802 88.48C337.576 88.6933 337.269 88.8 336.882 88.8C336.429 88.8 336.002 88.5933 335.602 88.18L335.502 88.08C335.209 88.3467 334.942 88.6467 334.702 88.98C334.476 89.3 334.276 89.6867 334.102 90.14V94.5C334.116 94.8067 334.269 94.9867 334.562 95.04L335.202 95.16C335.509 95.2267 335.662 95.38 335.662 95.62C335.662 95.8733 335.496 96 335.162 96H331.162C330.829 96 330.662 95.8733 330.662 95.62C330.662 95.38 330.816 95.2267 331.122 95.16L331.522 95.08C331.816 95.0133 331.969 94.84 331.982 94.56V90.94C331.982 90.6733 331.982 90.4333 331.982 90.22C331.982 90.0067 331.976 89.82 331.962 89.66C331.949 89.5533 331.942 89.4533 331.942 89.36C331.942 89.2667 331.942 89.1667 331.942 89.06C331.916 88.7533 331.756 88.58 331.462 88.54L330.982 88.48C330.676 88.44 330.522 88.3 330.522 88.06C330.522 87.8333 330.656 87.6667 330.922 87.56L333.242 86.66C333.362 86.6067 333.476 86.58 333.582 86.58C333.662 86.58 333.722 86.5933 333.762 86.62ZM347.88 94.64C347.907 94.6133 347.993 94.6667 348.14 94.8C348.3 94.96 348.293 95.16 348.12 95.4C347.907 95.7067 347.673 95.9133 347.42 96.02C347.167 96.14 346.867 96.2 346.52 96.2C345.973 96.2 345.54 96.0867 345.22 95.86C344.913 95.62 344.7 95.3067 344.58 94.92C344.153 95.3467 343.74 95.6867 343.34 95.94C342.94 96.18 342.427 96.3 341.8 96.3C341.067 96.3 340.447 96.1 339.94 95.7C339.447 95.3 339.2 94.7133 339.2 93.94C339.2 93.42 339.34 92.9733 339.62 92.6C339.913 92.2267 340.273 91.9067 340.7 91.64C341.14 91.3733 341.607 91.1533 342.1 90.98C342.593 90.8067 343.053 90.66 343.48 90.54L344.5 90.24V89.72C344.5 88.84 344.367 88.24 344.1 87.92C343.847 87.5867 343.407 87.42 342.78 87.42C342.713 87.42 342.647 87.42 342.58 87.42C342.527 87.42 342.467 87.4267 342.4 87.44C342.133 87.4533 341.967 87.6133 341.9 87.92L341.72 88.74C341.56 89.54 341.16 89.94 340.52 89.94C340.253 89.94 340.027 89.86 339.84 89.7C339.653 89.5267 339.547 89.3067 339.52 89.04C339.64 88.2933 340.04 87.6867 340.72 87.22C341.413 86.7533 342.32 86.52 343.44 86.52C344.547 86.52 345.353 86.7867 345.86 87.32C346.367 87.8533 346.62 88.7933 346.62 90.14V94.16C346.62 94.76 346.807 95.06 347.18 95.06C347.34 95.06 347.487 95.0133 347.62 94.92C347.713 94.8533 347.773 94.8 347.8 94.76C347.827 94.7067 347.853 94.6667 347.88 94.64ZM344.5 94.14V91.04C344.18 91.12 343.833 91.22 343.46 91.34C343.1 91.46 342.76 91.6133 342.44 91.8C342.12 91.9867 341.853 92.22 341.64 92.5C341.427 92.7667 341.32 93.0933 341.32 93.48C341.32 93.9333 341.453 94.2867 341.72 94.54C342 94.7933 342.367 94.92 342.82 94.92C343.087 94.92 343.333 94.8667 343.56 94.76C343.8 94.6533 344.113 94.4467 344.5 94.14ZM352.199 86.62C352.306 86.6867 352.366 86.84 352.379 87.08L352.439 87.86C352.866 87.4067 353.306 87.0733 353.759 86.86C354.226 86.6333 354.746 86.52 355.319 86.52C355.986 86.52 356.553 86.6667 357.019 86.96C357.486 87.24 357.866 87.6133 358.159 88.08C358.466 88.5333 358.686 89.0467 358.819 89.62C358.966 90.1933 359.039 90.7667 359.039 91.34C359.039 91.9533 358.959 92.56 358.799 93.16C358.639 93.7467 358.393 94.2733 358.059 94.74C357.726 95.2067 357.306 95.5867 356.799 95.88C356.293 96.16 355.699 96.3 355.019 96.3C354.033 96.3 353.193 95.9333 352.499 95.2V96.28C352.499 96.6667 352.499 97.0867 352.499 97.54C352.513 98.0067 352.526 98.4533 352.539 98.88C352.539 99.1867 352.686 99.3667 352.979 99.42L353.679 99.56C353.973 99.6133 354.119 99.7667 354.119 100.02C354.119 100.273 353.953 100.4 353.619 100.4H349.579C349.246 100.4 349.079 100.273 349.079 100.02C349.079 99.7667 349.226 99.6067 349.519 99.54L349.979 99.44C350.273 99.3733 350.419 99.1933 350.419 98.9C350.433 98.4733 350.439 98.0267 350.439 97.56C350.453 97.1067 350.459 96.68 350.459 96.28V90.94C350.459 90.6733 350.459 90.4333 350.459 90.22C350.459 90.0067 350.453 89.82 350.439 89.66C350.426 89.5533 350.419 89.4533 350.419 89.36C350.419 89.2667 350.419 89.1667 350.419 89.06C350.393 88.7533 350.233 88.58 349.939 88.54L349.459 88.48C349.153 88.44 348.999 88.3 348.999 88.06C348.999 87.8333 349.133 87.6667 349.399 87.56L351.699 86.66C351.819 86.6067 351.933 86.58 352.039 86.58C352.093 86.58 352.146 86.5933 352.199 86.62ZM352.559 88.64V94.22C353.199 94.74 353.819 95 354.419 95C355.086 95 355.639 94.7133 356.079 94.14C356.533 93.5667 356.759 92.6733 356.759 91.46C356.759 90.2333 356.559 89.32 356.159 88.72C355.773 88.1067 355.253 87.8 354.599 87.8C353.999 87.8 353.319 88.08 352.559 88.64ZM369.785 94.56C369.798 94.84 369.951 95.0133 370.245 95.08L370.585 95.14C370.878 95.2067 371.025 95.3667 371.025 95.62C371.025 95.8733 370.858 96 370.525 96H366.825C366.491 96 366.325 95.8733 366.325 95.62C366.325 95.38 366.478 95.2267 366.785 95.16L367.205 95.08C367.498 95.0133 367.651 94.84 367.665 94.56V90.2C367.665 89.4 367.565 88.8333 367.365 88.5C367.165 88.1533 366.811 87.98 366.305 87.98C365.891 87.98 365.491 88.08 365.105 88.28C364.718 88.4667 364.311 88.7733 363.885 89.2V94.54C363.885 94.8467 364.031 95.0267 364.325 95.08L364.665 95.14C364.958 95.2067 365.105 95.3667 365.105 95.62C365.105 95.8733 364.938 96 364.605 96H360.925C360.591 96 360.425 95.8733 360.425 95.62C360.425 95.38 360.578 95.2267 360.885 95.16L361.285 95.08C361.578 95.0133 361.731 94.84 361.745 94.56V84.34C361.745 84.0333 361.591 83.86 361.285 83.82L360.685 83.74C360.378 83.7 360.225 83.56 360.225 83.32C360.225 83.08 360.365 82.92 360.645 82.84L363.265 82.16C363.331 82.1333 363.385 82.12 363.425 82.12C363.478 82.12 363.531 82.12 363.585 82.12C363.678 82.12 363.738 82.1333 363.765 82.16C363.845 82.2133 363.885 82.3733 363.885 82.64L363.825 84.96V88.24C364.345 87.6533 364.865 87.22 365.385 86.94C365.905 86.66 366.491 86.52 367.145 86.52C368.025 86.52 368.685 86.7933 369.125 87.34C369.565 87.8733 369.785 88.7533 369.785 89.98V94.56ZM380.803 86.86C381.137 86.86 381.303 86.9933 381.303 87.26C381.303 87.5267 381.15 87.6933 380.843 87.76L380.543 87.82C380.277 87.86 380.097 88.0067 380.003 88.26L377.143 96.08C376.997 96.4933 376.817 96.9533 376.603 97.46C376.403 97.98 376.157 98.46 375.863 98.9C375.57 99.3533 375.223 99.7333 374.823 100.04C374.423 100.347 373.957 100.5 373.423 100.5C372.917 100.5 372.477 100.38 372.103 100.14C371.743 99.9133 371.563 99.5933 371.563 99.18C371.657 98.8733 371.817 98.6533 372.043 98.52C372.27 98.4 372.53 98.34 372.823 98.34C373.063 98.34 373.29 98.38 373.503 98.46C373.73 98.54 373.977 98.7133 374.243 98.98C374.283 99.02 374.337 99.04 374.403 99.04C374.55 99.04 374.71 98.9333 374.883 98.72C375.057 98.52 375.223 98.28 375.383 98C375.543 97.7333 375.683 97.4667 375.803 97.2C375.937 96.9333 376.023 96.7467 376.063 96.64L372.643 88.24C372.55 88.0133 372.377 87.8733 372.123 87.82L371.843 87.76C371.55 87.7067 371.403 87.54 371.403 87.26C371.403 86.9933 371.57 86.86 371.903 86.86H375.843C376.177 86.86 376.343 86.9933 376.343 87.26C376.343 87.5533 376.19 87.72 375.883 87.76L375.403 87.84C375.043 87.9067 374.923 88.1067 375.043 88.44L377.043 93.86L378.923 88.42C379.043 88.0867 378.923 87.8867 378.563 87.82L378.123 87.76C377.817 87.72 377.663 87.5533 377.663 87.26C377.663 86.9933 377.83 86.86 378.163 86.86H380.803Z" fill="black"/>
</g>
<defs>
<clipPath id="clip0_1_9">
<rect width="650" height="108" fill="white"/>
</clipPath>
</defs>
</svg>
