<svg width="1013" height="108" viewBox="0 0 1013 108" fill="none" xmlns="http://www.w3.org/2000/svg">
<path d="M152.92 34.432L168.536 74.624C169.133 76.2027 169.816 77.2693 170.584 77.824C171.394 78.3787 172.141 78.6773 172.824 78.72V80C171.8 79.9147 170.584 79.872 169.176 79.872C167.81 79.8293 166.424 79.808 165.016 79.808C163.224 79.808 161.56 79.8293 160.024 79.872C158.488 79.872 157.25 79.9147 156.312 80V78.72C158.488 78.6347 159.853 78.272 160.408 77.632C161.005 76.9493 160.877 75.52 160.024 73.344L148.504 42.24L149.528 41.088L138.904 68.864C138.136 70.784 137.666 72.384 137.496 73.664C137.368 74.944 137.474 75.9467 137.816 76.672C138.2 77.3973 138.84 77.9093 139.736 78.208C140.632 78.5067 141.741 78.6773 143.064 78.72V80C141.784 79.9147 140.482 79.872 139.16 79.872C137.88 79.8293 136.664 79.808 135.512 79.808C134.488 79.808 133.57 79.8293 132.76 79.872C131.992 79.872 131.288 79.9147 130.648 80V78.72C131.544 78.5067 132.44 77.9733 133.336 77.12C134.232 76.2667 135.085 74.816 135.896 72.768L150.744 34.432C151.085 34.432 151.448 34.432 151.832 34.432C152.216 34.432 152.578 34.432 152.92 34.432ZM159.64 61.568V62.848H140.568L141.208 61.568H159.64ZM220.892 34.688V35.968C219.441 36.0533 218.353 36.3093 217.628 36.736C216.903 37.1627 216.412 37.8667 216.156 38.848C215.943 39.7867 215.836 41.1307 215.836 42.88V80.256C215.495 80.256 215.153 80.256 214.812 80.256C214.471 80.256 214.108 80.256 213.724 80.256L186.588 40.832V71.552C186.588 73.344 186.716 74.752 186.972 75.776C187.228 76.7573 187.783 77.4613 188.636 77.888C189.489 78.3147 190.791 78.592 192.54 78.72V80C191.729 79.9147 190.684 79.872 189.404 79.872C188.167 79.8293 186.993 79.808 185.884 79.808C184.817 79.808 183.751 79.8293 182.684 79.872C181.617 79.872 180.743 79.9147 180.06 80V78.72C181.468 78.592 182.535 78.336 183.26 77.952C183.985 77.5253 184.476 76.8213 184.732 75.84C184.988 74.8587 185.116 73.5147 185.116 71.808V41.472C185.116 39.8933 184.988 38.7413 184.732 38.016C184.476 37.248 183.985 36.736 183.26 36.48C182.535 36.1813 181.468 36.0107 180.06 35.968V34.688C180.743 34.7307 181.617 34.7733 182.684 34.816C183.751 34.8587 184.817 34.88 185.884 34.88C186.823 34.88 187.74 34.8587 188.636 34.816C189.532 34.7733 190.321 34.7307 191.004 34.688L214.364 68.096V43.136C214.364 41.3013 214.215 39.8933 213.916 38.912C213.66 37.9307 213.105 37.2267 212.252 36.8C211.399 36.3307 210.119 36.0533 208.412 35.968V34.688C209.18 34.7307 210.204 34.7733 211.484 34.816C212.764 34.8587 213.959 34.88 215.068 34.88C216.135 34.88 217.201 34.8587 218.268 34.816C219.335 34.7733 220.209 34.7307 220.892 34.688ZM250.532 34.432L266.148 74.624C266.745 76.2027 267.428 77.2693 268.196 77.824C269.007 78.3787 269.753 78.6773 270.436 78.72V80C269.412 79.9147 268.196 79.872 266.788 79.872C265.423 79.8293 264.036 79.808 262.628 79.808C260.836 79.808 259.172 79.8293 257.636 79.872C256.1 79.872 254.863 79.9147 253.924 80V78.72C256.1 78.6347 257.465 78.272 258.02 77.632C258.617 76.9493 258.489 75.52 257.636 73.344L246.116 42.24L247.14 41.088L236.516 68.864C235.748 70.784 235.279 72.384 235.108 73.664C234.98 74.944 235.087 75.9467 235.428 76.672C235.812 77.3973 236.452 77.9093 237.348 78.208C238.244 78.5067 239.353 78.6773 240.676 78.72V80C239.396 79.9147 238.095 79.872 236.772 79.872C235.492 79.8293 234.276 79.808 233.124 79.808C232.1 79.808 231.183 79.8293 230.372 79.872C229.604 79.872 228.9 79.9147 228.26 80V78.72C229.156 78.5067 230.052 77.9733 230.948 77.12C231.844 76.2667 232.697 74.816 233.508 72.768L248.356 34.432C248.697 34.432 249.06 34.432 249.444 34.432C249.828 34.432 250.191 34.432 250.532 34.432ZM257.252 61.568V62.848H238.18L238.82 61.568H257.252ZM293.322 33.92C295.584 33.92 297.312 34.176 298.506 34.688C299.701 35.2 300.746 35.7547 301.642 36.352C302.154 36.6507 302.56 36.8853 302.858 37.056C303.2 37.184 303.52 37.248 303.818 37.248C304.245 37.248 304.544 37.0133 304.714 36.544C304.928 36.0747 305.098 35.3707 305.226 34.432H306.698C306.656 35.2 306.592 36.1173 306.506 37.184C306.464 38.208 306.421 39.5733 306.378 41.28C306.378 42.9867 306.378 45.2267 306.378 48H304.906C304.778 45.9093 304.309 43.8827 303.498 41.92C302.73 39.9573 301.578 38.3573 300.042 37.12C298.549 35.8827 296.629 35.264 294.282 35.264C292.106 35.264 290.293 35.9253 288.842 37.248C287.434 38.528 286.73 40.2347 286.73 42.368C286.73 44.2453 287.2 45.824 288.138 47.104C289.077 48.3413 290.357 49.5147 291.978 50.624C293.642 51.6907 295.52 52.8853 297.61 54.208C299.744 55.5733 301.664 56.9387 303.37 58.304C305.077 59.6267 306.421 61.0987 307.402 62.72C308.384 64.3413 308.874 66.304 308.874 68.608C308.874 71.3813 308.213 73.6853 306.89 75.52C305.61 77.312 303.882 78.656 301.706 79.552C299.53 80.448 297.141 80.896 294.538 80.896C292.149 80.896 290.25 80.64 288.842 80.128C287.434 79.616 286.24 79.0827 285.258 78.528C284.32 77.9307 283.594 77.632 283.082 77.632C282.656 77.632 282.336 77.8667 282.122 78.336C281.952 78.8053 281.802 79.5093 281.674 80.448H280.202C280.288 79.5093 280.33 78.4213 280.33 77.184C280.373 75.904 280.394 74.24 280.394 72.192C280.437 70.144 280.458 67.5627 280.458 64.448H281.93C282.101 67.0933 282.57 69.568 283.338 71.872C284.149 74.176 285.365 76.032 286.986 77.44C288.65 78.8053 290.848 79.488 293.578 79.488C295.029 79.488 296.373 79.2107 297.61 78.656C298.848 78.1013 299.85 77.2267 300.618 76.032C301.386 74.8373 301.77 73.3013 301.77 71.424C301.77 69.6747 301.344 68.1387 300.49 66.816C299.68 65.4933 298.528 64.2773 297.034 63.168C295.584 62.016 293.877 60.8427 291.914 59.648C289.909 58.368 288.032 57.088 286.282 55.808C284.533 54.528 283.125 53.0347 282.058 51.328C281.034 49.6213 280.522 47.5947 280.522 45.248C280.522 42.6453 281.12 40.512 282.314 38.848C283.552 37.184 285.13 35.9467 287.05 35.136C289.013 34.3253 291.104 33.92 293.322 33.92ZM357.239 34.688C357.068 36.48 356.94 38.2293 356.855 39.936C356.812 41.6 356.791 42.88 356.791 43.776C356.791 44.7573 356.812 45.696 356.855 46.592C356.897 47.488 356.94 48.256 356.983 48.896H355.511C355.084 45.696 354.508 43.1787 353.783 41.344C353.1 39.5093 352.097 38.1867 350.775 37.376C349.452 36.5653 347.553 36.16 345.079 36.16H342.327V72.64C342.327 74.3467 342.476 75.6267 342.775 76.48C343.116 77.3333 343.756 77.9093 344.695 78.208C345.676 78.464 347.084 78.6347 348.919 78.72V80C347.724 79.9147 346.188 79.872 344.311 79.872C342.433 79.8293 340.513 79.808 338.551 79.808C336.503 79.808 334.561 79.8293 332.727 79.872C330.935 79.872 329.484 79.9147 328.375 80V78.72C330.209 78.6347 331.596 78.464 332.535 78.208C333.473 77.9093 334.113 77.3333 334.455 76.48C334.796 75.6267 334.967 74.3467 334.967 72.64V36.16H332.151C329.761 36.16 327.884 36.5653 326.519 37.376C325.153 38.1867 324.129 39.5093 323.447 41.344C322.764 43.1787 322.209 45.696 321.783 48.896H320.311C320.396 48.256 320.439 47.488 320.439 46.592C320.481 45.696 320.503 44.7573 320.503 43.776C320.503 42.88 320.46 41.6 320.375 39.936C320.332 38.2293 320.225 36.48 320.055 34.688C321.889 34.7307 323.895 34.7733 326.071 34.816C328.247 34.8587 330.444 34.88 332.663 34.88C334.881 34.88 336.887 34.88 338.679 34.88C340.471 34.88 342.455 34.88 344.631 34.88C346.807 34.88 349.004 34.8587 351.223 34.816C353.441 34.7733 355.447 34.7307 357.239 34.688ZM383.795 34.432L399.411 74.624C400.008 76.2027 400.691 77.2693 401.459 77.824C402.269 78.3787 403.016 78.6773 403.699 78.72V80C402.675 79.9147 401.459 79.872 400.051 79.872C398.685 79.8293 397.299 79.808 395.891 79.808C394.099 79.808 392.435 79.8293 390.899 79.872C389.363 79.872 388.125 79.9147 387.187 80V78.72C389.363 78.6347 390.728 78.272 391.283 77.632C391.88 76.9493 391.752 75.52 390.899 73.344L379.379 42.24L380.403 41.088L369.779 68.864C369.011 70.784 368.541 72.384 368.371 73.664C368.243 74.944 368.349 75.9467 368.691 76.672C369.075 77.3973 369.715 77.9093 370.611 78.208C371.507 78.5067 372.616 78.6773 373.939 78.72V80C372.659 79.9147 371.357 79.872 370.035 79.872C368.755 79.8293 367.539 79.808 366.387 79.808C365.363 79.808 364.445 79.8293 363.635 79.872C362.867 79.872 362.163 79.9147 361.523 80V78.72C362.419 78.5067 363.315 77.9733 364.211 77.12C365.107 76.2667 365.96 74.816 366.771 72.768L381.619 34.432C381.96 34.432 382.323 34.432 382.707 34.432C383.091 34.432 383.453 34.432 383.795 34.432ZM390.515 61.568V62.848H371.443L372.083 61.568H390.515ZM426.585 33.92C428.846 33.92 430.574 34.176 431.769 34.688C432.964 35.2 434.009 35.7547 434.905 36.352C435.417 36.6507 435.822 36.8853 436.121 37.056C436.462 37.184 436.782 37.248 437.081 37.248C437.508 37.248 437.806 37.0133 437.977 36.544C438.19 36.0747 438.361 35.3707 438.489 34.432H439.961C439.918 35.2 439.854 36.1173 439.769 37.184C439.726 38.208 439.684 39.5733 439.641 41.28C439.641 42.9867 439.641 45.2267 439.641 48H438.169C438.041 45.9093 437.572 43.8827 436.761 41.92C435.993 39.9573 434.841 38.3573 433.305 37.12C431.812 35.8827 429.892 35.264 427.545 35.264C425.369 35.264 423.556 35.9253 422.105 37.248C420.697 38.528 419.993 40.2347 419.993 42.368C419.993 44.2453 420.462 45.824 421.401 47.104C422.34 48.3413 423.62 49.5147 425.241 50.624C426.905 51.6907 428.782 52.8853 430.873 54.208C433.006 55.5733 434.926 56.9387 436.633 58.304C438.34 59.6267 439.684 61.0987 440.665 62.72C441.646 64.3413 442.137 66.304 442.137 68.608C442.137 71.3813 441.476 73.6853 440.153 75.52C438.873 77.312 437.145 78.656 434.969 79.552C432.793 80.448 430.404 80.896 427.801 80.896C425.412 80.896 423.513 80.64 422.105 80.128C420.697 79.616 419.502 79.0827 418.521 78.528C417.582 77.9307 416.857 77.632 416.345 77.632C415.918 77.632 415.598 77.8667 415.385 78.336C415.214 78.8053 415.065 79.5093 414.937 80.448H413.465C413.55 79.5093 413.593 78.4213 413.593 77.184C413.636 75.904 413.657 74.24 413.657 72.192C413.7 70.144 413.721 67.5627 413.721 64.448H415.193C415.364 67.0933 415.833 69.568 416.601 71.872C417.412 74.176 418.628 76.032 420.249 77.44C421.913 78.8053 424.11 79.488 426.841 79.488C428.292 79.488 429.636 79.2107 430.873 78.656C432.11 78.1013 433.113 77.2267 433.881 76.032C434.649 74.8373 435.033 73.3013 435.033 71.424C435.033 69.6747 434.606 68.1387 433.753 66.816C432.942 65.4933 431.79 64.2773 430.297 63.168C428.846 62.016 427.14 60.8427 425.177 59.648C423.172 58.368 421.294 57.088 419.545 55.808C417.796 54.528 416.388 53.0347 415.321 51.328C414.297 49.6213 413.785 47.5947 413.785 45.248C413.785 42.6453 414.382 40.512 415.577 38.848C416.814 37.184 418.393 35.9467 420.313 35.136C422.276 34.3253 424.366 33.92 426.585 33.92ZM471.493 34.688V35.968C470.085 36.0107 469.018 36.1813 468.293 36.48C467.568 36.736 467.077 37.248 466.821 38.016C466.565 38.7413 466.437 39.8933 466.437 41.472V73.216C466.437 74.752 466.565 75.904 466.821 76.672C467.077 77.44 467.568 77.952 468.293 78.208C469.018 78.464 470.085 78.6347 471.493 78.72V80C470.469 79.9147 469.168 79.872 467.589 79.872C466.053 79.8293 464.474 79.808 462.853 79.808C461.061 79.808 459.376 79.8293 457.797 79.872C456.261 79.872 455.002 79.9147 454.021 80V78.72C455.472 78.6347 456.56 78.464 457.285 78.208C458.01 77.952 458.48 77.44 458.693 76.672C458.949 75.904 459.077 74.752 459.077 73.216V41.472C459.077 39.8933 458.949 38.7413 458.693 38.016C458.48 37.248 457.989 36.736 457.221 36.48C456.496 36.1813 455.429 36.0107 454.021 35.968V34.688C455.002 34.7307 456.261 34.7733 457.797 34.816C459.376 34.8587 461.061 34.88 462.853 34.88C464.474 34.88 466.053 34.8587 467.589 34.816C469.168 34.7733 470.469 34.7307 471.493 34.688ZM501.995 34.432L517.611 74.624C518.208 76.2027 518.891 77.2693 519.659 77.824C520.469 78.3787 521.216 78.6773 521.899 78.72V80C520.875 79.9147 519.659 79.872 518.251 79.872C516.885 79.8293 515.499 79.808 514.091 79.808C512.299 79.808 510.635 79.8293 509.099 79.872C507.563 79.872 506.325 79.9147 505.387 80V78.72C507.563 78.6347 508.928 78.272 509.483 77.632C510.08 76.9493 509.952 75.52 509.099 73.344L497.579 42.24L498.603 41.088L487.979 68.864C487.211 70.784 486.741 72.384 486.571 73.664C486.443 74.944 486.549 75.9467 486.891 76.672C487.275 77.3973 487.915 77.9093 488.811 78.208C489.707 78.5067 490.816 78.6773 492.139 78.72V80C490.859 79.9147 489.557 79.872 488.235 79.872C486.955 79.8293 485.739 79.808 484.587 79.808C483.563 79.808 482.645 79.8293 481.835 79.872C481.067 79.872 480.363 79.9147 479.723 80V78.72C480.619 78.5067 481.515 77.9733 482.411 77.12C483.307 76.2667 484.16 74.816 484.971 72.768L499.819 34.432C500.16 34.432 500.523 34.432 500.907 34.432C501.291 34.432 501.653 34.432 501.995 34.432ZM508.715 61.568V62.848H489.643L490.283 61.568H508.715ZM574.371 34.688C575.352 34.7307 576.611 34.7733 578.147 34.816C579.726 34.8587 581.283 34.88 582.819 34.88C584.867 34.88 586.808 34.8587 588.643 34.816C590.52 34.7733 591.843 34.752 592.611 34.752C597.39 34.752 600.952 35.6907 603.299 37.568C605.688 39.4453 606.883 41.856 606.883 44.8C606.883 46.2933 606.52 47.7867 605.795 49.28C605.112 50.7307 603.982 52.0533 602.403 53.248C600.824 54.4 598.734 55.3173 596.131 56V56.128C599.715 56.512 602.531 57.28 604.579 58.432C606.627 59.584 608.078 60.9707 608.931 62.592C609.784 64.1707 610.211 65.8347 610.211 67.584C610.211 70.1013 609.571 72.2987 608.291 74.176C607.011 76.0107 605.155 77.44 602.723 78.464C600.334 79.488 597.454 80 594.083 80C593.144 80 591.715 79.9787 589.795 79.936C587.918 79.8507 585.635 79.808 582.947 79.808C581.326 79.808 579.726 79.8293 578.147 79.872C576.611 79.872 575.352 79.9147 574.371 80V78.72C575.822 78.6347 576.91 78.464 577.635 78.208C578.36 77.952 578.83 77.44 579.043 76.672C579.299 75.904 579.427 74.752 579.427 73.216V41.472C579.427 39.8933 579.299 38.7413 579.043 38.016C578.83 37.248 578.339 36.736 577.571 36.48C576.846 36.1813 575.779 36.0107 574.371 35.968V34.688ZM591.267 35.968C589.432 35.968 588.216 36.3307 587.619 37.056C587.064 37.7813 586.787 39.2533 586.787 41.472V73.216C586.787 74.7093 586.915 75.84 587.171 76.608C587.427 77.376 587.875 77.888 588.515 78.144C589.198 78.4 590.179 78.528 591.459 78.528C595.299 78.528 598.072 77.568 599.779 75.648C601.528 73.6853 602.403 70.912 602.403 67.328C602.403 64.0427 601.528 61.504 599.779 59.712C598.072 57.92 595.235 57.024 591.267 57.024H585.059C585.059 57.024 585.059 56.8533 585.059 56.512C585.059 56.128 585.059 55.936 585.059 55.936H590.563C592.91 55.936 594.723 55.4667 596.003 54.528C597.283 53.5467 598.158 52.2667 598.627 50.688C599.096 49.0667 599.331 47.3387 599.331 45.504C599.331 42.3467 598.712 39.9787 597.475 38.4C596.238 36.7787 594.168 35.968 591.267 35.968ZM653.975 34.688C653.804 36.3093 653.676 37.888 653.591 39.424C653.548 40.9173 653.527 42.0693 653.527 42.88C653.527 43.6907 653.548 44.4587 653.591 45.184C653.634 45.9093 653.676 46.5067 653.719 46.976H652.247C651.948 44.2453 651.479 42.0907 650.839 40.512C650.242 38.9333 649.324 37.824 648.087 37.184C646.892 36.5013 645.207 36.16 643.031 36.16H638.615C637.25 36.16 636.204 36.288 635.479 36.544C634.796 36.7573 634.327 37.2267 634.071 37.952C633.815 38.6347 633.687 39.7227 633.687 41.216V73.472C633.687 74.9227 633.815 76.0107 634.071 76.736C634.327 77.4613 634.796 77.952 635.479 78.208C636.204 78.4213 637.25 78.528 638.615 78.528H642.775C645.207 78.528 647.127 78.144 648.535 77.376C649.986 76.608 651.074 75.3493 651.799 73.6C652.567 71.8507 653.143 69.4613 653.527 66.432H654.999C654.871 67.6693 654.807 69.2907 654.807 71.296C654.807 72.1493 654.828 73.3867 654.871 75.008C654.956 76.6293 655.084 78.2933 655.255 80C653.079 79.9147 650.626 79.872 647.895 79.872C645.164 79.8293 642.732 79.808 640.599 79.808C639.618 79.808 638.359 79.808 636.823 79.808C635.287 79.808 633.623 79.8293 631.831 79.872C630.082 79.872 628.29 79.8933 626.455 79.936C624.663 79.936 622.935 79.9573 621.271 80V78.72C622.722 78.6347 623.81 78.464 624.535 78.208C625.26 77.952 625.73 77.44 625.943 76.672C626.199 75.904 626.327 74.752 626.327 73.216V41.472C626.327 39.8933 626.199 38.7413 625.943 38.016C625.73 37.248 625.239 36.736 624.471 36.48C623.746 36.1813 622.679 36.0107 621.271 35.968V34.688C622.935 34.7307 624.663 34.7733 626.455 34.816C628.29 34.816 630.082 34.8373 631.831 34.88C633.623 34.88 635.287 34.88 636.823 34.88C638.359 34.88 639.618 34.88 640.599 34.88C642.562 34.88 644.78 34.88 647.255 34.88C649.772 34.8373 652.012 34.7733 653.975 34.688ZM643.351 56.576C643.351 56.576 643.351 56.7893 643.351 57.216C643.351 57.6427 643.351 57.856 643.351 57.856H631.767C631.767 57.856 631.767 57.6427 631.767 57.216C631.767 56.7893 631.767 56.576 631.767 56.576H643.351ZM645.207 48.128C645.036 50.56 644.951 52.416 644.951 53.696C644.994 54.976 645.015 56.1493 645.015 57.216C645.015 58.2827 645.036 59.456 645.079 60.736C645.122 62.016 645.228 63.872 645.399 66.304H643.927C643.714 64.896 643.436 63.552 643.095 62.272C642.754 60.9493 642.135 59.8827 641.239 59.072C640.386 58.2613 639.042 57.856 637.207 57.856V56.576C638.572 56.576 639.639 56.2987 640.407 55.744C641.218 55.1893 641.836 54.464 642.263 53.568C642.69 52.672 642.988 51.7547 643.159 50.816C643.372 49.8347 643.564 48.9387 643.735 48.128H645.207ZM703.651 34.688C703.48 36.48 703.352 38.2293 703.267 39.936C703.224 41.6 703.203 42.88 703.203 43.776C703.203 44.7573 703.224 45.696 703.267 46.592C703.31 47.488 703.352 48.256 703.395 48.896H701.923C701.496 45.696 700.92 43.1787 700.195 41.344C699.512 39.5093 698.51 38.1867 697.187 37.376C695.864 36.5653 693.966 36.16 691.491 36.16H688.739V72.64C688.739 74.3467 688.888 75.6267 689.187 76.48C689.528 77.3333 690.168 77.9093 691.107 78.208C692.088 78.464 693.496 78.6347 695.331 78.72V80C694.136 79.9147 692.6 79.872 690.723 79.872C688.846 79.8293 686.926 79.808 684.963 79.808C682.915 79.808 680.974 79.8293 679.139 79.872C677.347 79.872 675.896 79.9147 674.787 80V78.72C676.622 78.6347 678.008 78.464 678.947 78.208C679.886 77.9093 680.526 77.3333 680.867 76.48C681.208 75.6267 681.379 74.3467 681.379 72.64V36.16H678.563C676.174 36.16 674.296 36.5653 672.931 37.376C671.566 38.1867 670.542 39.5093 669.859 41.344C669.176 43.1787 668.622 45.696 668.195 48.896H666.723C666.808 48.256 666.851 47.488 666.851 46.592C666.894 45.696 666.915 44.7573 666.915 43.776C666.915 42.88 666.872 41.6 666.787 39.936C666.744 38.2293 666.638 36.48 666.467 34.688C668.302 34.7307 670.307 34.7733 672.483 34.816C674.659 34.8587 676.856 34.88 679.075 34.88C681.294 34.88 683.299 34.88 685.091 34.88C686.883 34.88 688.867 34.88 691.043 34.88C693.219 34.88 695.416 34.8587 697.635 34.816C699.854 34.7733 701.859 34.7307 703.651 34.688ZM752.785 34.688V35.968C751.42 36.1813 750.054 36.672 748.689 37.44C747.366 38.1653 746.022 39.3813 744.657 41.088L732.369 56.448L734.545 52.544L749.905 74.816C750.588 75.84 751.313 76.6507 752.081 77.248C752.892 77.8453 753.916 78.336 755.153 78.72V80C754.001 79.9147 752.614 79.872 750.993 79.872C749.372 79.8293 747.942 79.808 746.705 79.808C745.937 79.808 744.977 79.8293 743.825 79.872C742.716 79.872 741.308 79.9147 739.601 80V78.72C741.18 78.6347 742.14 78.3787 742.481 77.952C742.865 77.5253 742.716 76.8213 742.033 75.84L732.753 61.44C731.985 60.2453 731.302 59.3493 730.705 58.752C730.108 58.112 729.489 57.7067 728.849 57.536C728.209 57.3227 727.42 57.1947 726.481 57.152V55.808C728.273 55.7653 729.809 55.36 731.089 54.592C732.412 53.824 733.649 52.7787 734.801 51.456L740.113 44.736C741.606 42.9013 742.566 41.344 742.993 40.064C743.42 38.7413 743.313 37.7387 742.673 37.056C742.033 36.3733 740.838 36.0107 739.089 35.968V34.688C739.985 34.7307 740.86 34.7733 741.713 34.816C742.609 34.816 743.505 34.8373 744.401 34.88C745.34 34.88 746.257 34.88 747.153 34.88C748.305 34.88 749.35 34.8587 750.289 34.816C751.27 34.7733 752.102 34.7307 752.785 34.688ZM731.793 34.688V35.968C730.385 36.0107 729.318 36.1813 728.593 36.48C727.868 36.736 727.377 37.248 727.121 38.016C726.865 38.7413 726.737 39.8933 726.737 41.472V73.216C726.737 74.752 726.865 75.904 727.121 76.672C727.377 77.44 727.868 77.952 728.593 78.208C729.318 78.464 730.385 78.6347 731.793 78.72V80C730.769 79.9147 729.468 79.872 727.889 79.872C726.353 79.8293 724.774 79.808 723.153 79.808C721.361 79.808 719.676 79.8293 718.097 79.872C716.561 79.872 715.302 79.9147 714.321 80V78.72C715.772 78.6347 716.86 78.464 717.585 78.208C718.31 77.952 718.78 77.44 718.993 76.672C719.249 75.904 719.377 74.752 719.377 73.216V41.472C719.377 39.8933 719.249 38.7413 718.993 38.016C718.78 37.248 718.289 36.736 717.521 36.48C716.796 36.1813 715.729 36.0107 714.321 35.968V34.688C715.302 34.7307 716.561 34.7733 718.097 34.816C719.676 34.8587 721.361 34.88 723.153 34.88C724.774 34.88 726.353 34.8587 727.889 34.816C729.468 34.7733 730.769 34.7307 731.793 34.688ZM781.38 34.688V35.968C779.972 36.0107 778.906 36.1813 778.18 36.48C777.455 36.736 776.964 37.248 776.708 38.016C776.452 38.7413 776.324 39.8933 776.324 41.472V73.216C776.324 74.752 776.452 75.904 776.708 76.672C776.964 77.44 777.455 77.952 778.18 78.208C778.906 78.464 779.972 78.6347 781.38 78.72V80C780.356 79.9147 779.055 79.872 777.476 79.872C775.94 79.8293 774.362 79.808 772.74 79.808C770.948 79.808 769.263 79.8293 767.684 79.872C766.148 79.872 764.89 79.9147 763.908 80V78.72C765.359 78.6347 766.447 78.464 767.172 78.208C767.898 77.952 768.367 77.44 768.58 76.672C768.836 75.904 768.964 74.752 768.964 73.216V41.472C768.964 39.8933 768.836 38.7413 768.58 38.016C768.367 37.248 767.876 36.736 767.108 36.48C766.383 36.1813 765.316 36.0107 763.908 35.968V34.688C764.89 34.7307 766.148 34.7733 767.684 34.816C769.263 34.8587 770.948 34.88 772.74 34.88C774.362 34.88 775.94 34.8587 777.476 34.816C779.055 34.7733 780.356 34.7307 781.38 34.688ZM833.642 34.688V35.968C832.191 36.0533 831.103 36.3093 830.378 36.736C829.653 37.1627 829.162 37.8667 828.906 38.848C828.693 39.7867 828.586 41.1307 828.586 42.88V80.256C828.245 80.256 827.903 80.256 827.562 80.256C827.221 80.256 826.858 80.256 826.474 80.256L799.338 40.832V71.552C799.338 73.344 799.466 74.752 799.722 75.776C799.978 76.7573 800.533 77.4613 801.386 77.888C802.239 78.3147 803.541 78.592 805.29 78.72V80C804.479 79.9147 803.434 79.872 802.154 79.872C800.917 79.8293 799.743 79.808 798.634 79.808C797.567 79.808 796.501 79.8293 795.434 79.872C794.367 79.872 793.493 79.9147 792.81 80V78.72C794.218 78.592 795.285 78.336 796.01 77.952C796.735 77.5253 797.226 76.8213 797.482 75.84C797.738 74.8587 797.866 73.5147 797.866 71.808V41.472C797.866 39.8933 797.738 38.7413 797.482 38.016C797.226 37.248 796.735 36.736 796.01 36.48C795.285 36.1813 794.218 36.0107 792.81 35.968V34.688C793.493 34.7307 794.367 34.7733 795.434 34.816C796.501 34.8587 797.567 34.88 798.634 34.88C799.573 34.88 800.49 34.8587 801.386 34.816C802.282 34.7733 803.071 34.7307 803.754 34.688L827.114 68.096V43.136C827.114 41.3013 826.965 39.8933 826.666 38.912C826.41 37.9307 825.855 37.2267 825.002 36.8C824.149 36.3307 822.869 36.0533 821.162 35.968V34.688C821.93 34.7307 822.954 34.7733 824.234 34.816C825.514 34.8587 826.709 34.88 827.818 34.88C828.885 34.88 829.951 34.8587 831.018 34.816C832.085 34.7733 832.959 34.7307 833.642 34.688ZM863.282 34.432L878.898 74.624C879.495 76.2027 880.178 77.2693 880.946 77.824C881.757 78.3787 882.503 78.6773 883.186 78.72V80C882.162 79.9147 880.946 79.872 879.538 79.872C878.173 79.8293 876.786 79.808 875.378 79.808C873.586 79.808 871.922 79.8293 870.386 79.872C868.85 79.872 867.613 79.9147 866.674 80V78.72C868.85 78.6347 870.215 78.272 870.77 77.632C871.367 76.9493 871.239 75.52 870.386 73.344L858.866 42.24L859.89 41.088L849.266 68.864C848.498 70.784 848.029 72.384 847.858 73.664C847.73 74.944 847.837 75.9467 848.178 76.672C848.562 77.3973 849.202 77.9093 850.098 78.208C850.994 78.5067 852.103 78.6773 853.426 78.72V80C852.146 79.9147 850.845 79.872 849.522 79.872C848.242 79.8293 847.026 79.808 845.874 79.808C844.85 79.808 843.933 79.8293 843.122 79.872C842.354 79.872 841.65 79.9147 841.01 80V78.72C841.906 78.5067 842.802 77.9733 843.698 77.12C844.594 76.2667 845.447 74.816 846.258 72.768L861.106 34.432C861.447 34.432 861.81 34.432 862.194 34.432C862.578 34.432 862.941 34.432 863.282 34.432ZM870.002 61.568V62.848H850.93L851.57 61.568H870.002Z" fill="black"/>
</svg>
